%TF.GenerationSoftware,KiCad,Pcbnew,(5.1.9)-1*%
%TF.CreationDate,2021-02-21T10:06:19+01:00*%
%TF.ProjectId,CanDisplayFoReal,43616e44-6973-4706-9c61-79466f526561,rev?*%
%TF.SameCoordinates,Original*%
%TF.FileFunction,Soldermask,Top*%
%TF.FilePolarity,Negative*%
%FSLAX46Y46*%
G04 Gerber Fmt 4.6, Leading zero omitted, Abs format (unit mm)*
G04 Created by KiCad (PCBNEW (5.1.9)-1) date 2021-02-21 10:06:19*
%MOMM*%
%LPD*%
G01*
G04 APERTURE LIST*
%ADD10C,1.152000*%
%ADD11C,1.500000*%
%ADD12C,1.000000*%
%ADD13O,1.700000X1.700000*%
%ADD14R,1.700000X1.700000*%
%ADD15C,5.600000*%
%ADD16R,1.100000X0.250000*%
%ADD17R,1.500000X2.000000*%
%ADD18R,3.800000X2.000000*%
%ADD19O,2.300000X1.500000*%
%ADD20R,2.300000X1.500000*%
%ADD21R,1.060000X0.650000*%
%ADD22C,2.000000*%
%ADD23R,0.900000X0.800000*%
%ADD24R,2.400000X1.500000*%
%ADD25R,0.700000X0.450000*%
%ADD26R,0.600000X0.450000*%
%ADD27R,0.450000X0.600000*%
%ADD28R,2.500000X1.800000*%
%ADD29R,0.800000X0.900000*%
%ADD30C,1.404000*%
%ADD31C,1.304000*%
%ADD32C,0.804000*%
G04 APERTURE END LIST*
D10*
%TO.C,REF\u002A\u002A*%
X193802000Y-92964000D03*
%TD*%
%TO.C,REF\u002A\u002A*%
X121666000Y-92202000D03*
%TD*%
%TO.C,REF\u002A\u002A*%
X121666000Y-57404000D03*
%TD*%
%TO.C,C31*%
G36*
G01*
X194052000Y-60635000D02*
X193552000Y-60635000D01*
G75*
G02*
X193327000Y-60410000I0J225000D01*
G01*
X193327000Y-59960000D01*
G75*
G02*
X193552000Y-59735000I225000J0D01*
G01*
X194052000Y-59735000D01*
G75*
G02*
X194277000Y-59960000I0J-225000D01*
G01*
X194277000Y-60410000D01*
G75*
G02*
X194052000Y-60635000I-225000J0D01*
G01*
G37*
G36*
G01*
X194052000Y-62185000D02*
X193552000Y-62185000D01*
G75*
G02*
X193327000Y-61960000I0J225000D01*
G01*
X193327000Y-61510000D01*
G75*
G02*
X193552000Y-61285000I225000J0D01*
G01*
X194052000Y-61285000D01*
G75*
G02*
X194277000Y-61510000I0J-225000D01*
G01*
X194277000Y-61960000D01*
G75*
G02*
X194052000Y-62185000I-225000J0D01*
G01*
G37*
%TD*%
%TO.C,C30*%
G36*
G01*
X194052000Y-89845000D02*
X193552000Y-89845000D01*
G75*
G02*
X193327000Y-89620000I0J225000D01*
G01*
X193327000Y-89170000D01*
G75*
G02*
X193552000Y-88945000I225000J0D01*
G01*
X194052000Y-88945000D01*
G75*
G02*
X194277000Y-89170000I0J-225000D01*
G01*
X194277000Y-89620000D01*
G75*
G02*
X194052000Y-89845000I-225000J0D01*
G01*
G37*
G36*
G01*
X194052000Y-91395000D02*
X193552000Y-91395000D01*
G75*
G02*
X193327000Y-91170000I0J225000D01*
G01*
X193327000Y-90720000D01*
G75*
G02*
X193552000Y-90495000I225000J0D01*
G01*
X194052000Y-90495000D01*
G75*
G02*
X194277000Y-90720000I0J-225000D01*
G01*
X194277000Y-91170000D01*
G75*
G02*
X194052000Y-91395000I-225000J0D01*
G01*
G37*
%TD*%
%TO.C,C24*%
G36*
G01*
X161032000Y-94671000D02*
X160532000Y-94671000D01*
G75*
G02*
X160307000Y-94446000I0J225000D01*
G01*
X160307000Y-93996000D01*
G75*
G02*
X160532000Y-93771000I225000J0D01*
G01*
X161032000Y-93771000D01*
G75*
G02*
X161257000Y-93996000I0J-225000D01*
G01*
X161257000Y-94446000D01*
G75*
G02*
X161032000Y-94671000I-225000J0D01*
G01*
G37*
G36*
G01*
X161032000Y-96221000D02*
X160532000Y-96221000D01*
G75*
G02*
X160307000Y-95996000I0J225000D01*
G01*
X160307000Y-95546000D01*
G75*
G02*
X160532000Y-95321000I225000J0D01*
G01*
X161032000Y-95321000D01*
G75*
G02*
X161257000Y-95546000I0J-225000D01*
G01*
X161257000Y-95996000D01*
G75*
G02*
X161032000Y-96221000I-225000J0D01*
G01*
G37*
%TD*%
%TO.C,C6*%
G36*
G01*
X158754000Y-58732000D02*
X159254000Y-58732000D01*
G75*
G02*
X159479000Y-58957000I0J-225000D01*
G01*
X159479000Y-59407000D01*
G75*
G02*
X159254000Y-59632000I-225000J0D01*
G01*
X158754000Y-59632000D01*
G75*
G02*
X158529000Y-59407000I0J225000D01*
G01*
X158529000Y-58957000D01*
G75*
G02*
X158754000Y-58732000I225000J0D01*
G01*
G37*
G36*
G01*
X158754000Y-57182000D02*
X159254000Y-57182000D01*
G75*
G02*
X159479000Y-57407000I0J-225000D01*
G01*
X159479000Y-57857000D01*
G75*
G02*
X159254000Y-58082000I-225000J0D01*
G01*
X158754000Y-58082000D01*
G75*
G02*
X158529000Y-57857000I0J225000D01*
G01*
X158529000Y-57407000D01*
G75*
G02*
X158754000Y-57182000I225000J0D01*
G01*
G37*
%TD*%
%TO.C,C4*%
G36*
G01*
X194052000Y-82746000D02*
X193552000Y-82746000D01*
G75*
G02*
X193327000Y-82521000I0J225000D01*
G01*
X193327000Y-82071000D01*
G75*
G02*
X193552000Y-81846000I225000J0D01*
G01*
X194052000Y-81846000D01*
G75*
G02*
X194277000Y-82071000I0J-225000D01*
G01*
X194277000Y-82521000D01*
G75*
G02*
X194052000Y-82746000I-225000J0D01*
G01*
G37*
G36*
G01*
X194052000Y-84296000D02*
X193552000Y-84296000D01*
G75*
G02*
X193327000Y-84071000I0J225000D01*
G01*
X193327000Y-83621000D01*
G75*
G02*
X193552000Y-83396000I225000J0D01*
G01*
X194052000Y-83396000D01*
G75*
G02*
X194277000Y-83621000I0J-225000D01*
G01*
X194277000Y-84071000D01*
G75*
G02*
X194052000Y-84296000I-225000J0D01*
G01*
G37*
%TD*%
%TO.C,U10*%
G36*
G01*
X134455000Y-61572000D02*
X134455000Y-61872000D01*
G75*
G02*
X134305000Y-62022000I-150000J0D01*
G01*
X132655000Y-62022000D01*
G75*
G02*
X132505000Y-61872000I0J150000D01*
G01*
X132505000Y-61572000D01*
G75*
G02*
X132655000Y-61422000I150000J0D01*
G01*
X134305000Y-61422000D01*
G75*
G02*
X134455000Y-61572000I0J-150000D01*
G01*
G37*
G36*
G01*
X134455000Y-60302000D02*
X134455000Y-60602000D01*
G75*
G02*
X134305000Y-60752000I-150000J0D01*
G01*
X132655000Y-60752000D01*
G75*
G02*
X132505000Y-60602000I0J150000D01*
G01*
X132505000Y-60302000D01*
G75*
G02*
X132655000Y-60152000I150000J0D01*
G01*
X134305000Y-60152000D01*
G75*
G02*
X134455000Y-60302000I0J-150000D01*
G01*
G37*
G36*
G01*
X134455000Y-59032000D02*
X134455000Y-59332000D01*
G75*
G02*
X134305000Y-59482000I-150000J0D01*
G01*
X132655000Y-59482000D01*
G75*
G02*
X132505000Y-59332000I0J150000D01*
G01*
X132505000Y-59032000D01*
G75*
G02*
X132655000Y-58882000I150000J0D01*
G01*
X134305000Y-58882000D01*
G75*
G02*
X134455000Y-59032000I0J-150000D01*
G01*
G37*
G36*
G01*
X134455000Y-57762000D02*
X134455000Y-58062000D01*
G75*
G02*
X134305000Y-58212000I-150000J0D01*
G01*
X132655000Y-58212000D01*
G75*
G02*
X132505000Y-58062000I0J150000D01*
G01*
X132505000Y-57762000D01*
G75*
G02*
X132655000Y-57612000I150000J0D01*
G01*
X134305000Y-57612000D01*
G75*
G02*
X134455000Y-57762000I0J-150000D01*
G01*
G37*
G36*
G01*
X139405000Y-57762000D02*
X139405000Y-58062000D01*
G75*
G02*
X139255000Y-58212000I-150000J0D01*
G01*
X137605000Y-58212000D01*
G75*
G02*
X137455000Y-58062000I0J150000D01*
G01*
X137455000Y-57762000D01*
G75*
G02*
X137605000Y-57612000I150000J0D01*
G01*
X139255000Y-57612000D01*
G75*
G02*
X139405000Y-57762000I0J-150000D01*
G01*
G37*
G36*
G01*
X139405000Y-59032000D02*
X139405000Y-59332000D01*
G75*
G02*
X139255000Y-59482000I-150000J0D01*
G01*
X137605000Y-59482000D01*
G75*
G02*
X137455000Y-59332000I0J150000D01*
G01*
X137455000Y-59032000D01*
G75*
G02*
X137605000Y-58882000I150000J0D01*
G01*
X139255000Y-58882000D01*
G75*
G02*
X139405000Y-59032000I0J-150000D01*
G01*
G37*
G36*
G01*
X139405000Y-60302000D02*
X139405000Y-60602000D01*
G75*
G02*
X139255000Y-60752000I-150000J0D01*
G01*
X137605000Y-60752000D01*
G75*
G02*
X137455000Y-60602000I0J150000D01*
G01*
X137455000Y-60302000D01*
G75*
G02*
X137605000Y-60152000I150000J0D01*
G01*
X139255000Y-60152000D01*
G75*
G02*
X139405000Y-60302000I0J-150000D01*
G01*
G37*
G36*
G01*
X139405000Y-61572000D02*
X139405000Y-61872000D01*
G75*
G02*
X139255000Y-62022000I-150000J0D01*
G01*
X137605000Y-62022000D01*
G75*
G02*
X137455000Y-61872000I0J150000D01*
G01*
X137455000Y-61572000D01*
G75*
G02*
X137605000Y-61422000I150000J0D01*
G01*
X139255000Y-61422000D01*
G75*
G02*
X139405000Y-61572000I0J-150000D01*
G01*
G37*
%TD*%
%TO.C,C29*%
G36*
G01*
X162048000Y-62172000D02*
X161548000Y-62172000D01*
G75*
G02*
X161323000Y-61947000I0J225000D01*
G01*
X161323000Y-61497000D01*
G75*
G02*
X161548000Y-61272000I225000J0D01*
G01*
X162048000Y-61272000D01*
G75*
G02*
X162273000Y-61497000I0J-225000D01*
G01*
X162273000Y-61947000D01*
G75*
G02*
X162048000Y-62172000I-225000J0D01*
G01*
G37*
G36*
G01*
X162048000Y-63722000D02*
X161548000Y-63722000D01*
G75*
G02*
X161323000Y-63497000I0J225000D01*
G01*
X161323000Y-63047000D01*
G75*
G02*
X161548000Y-62822000I225000J0D01*
G01*
X162048000Y-62822000D01*
G75*
G02*
X162273000Y-63047000I0J-225000D01*
G01*
X162273000Y-63497000D01*
G75*
G02*
X162048000Y-63722000I-225000J0D01*
G01*
G37*
%TD*%
%TO.C,C28*%
G36*
G01*
X134424000Y-64004000D02*
X134424000Y-63504000D01*
G75*
G02*
X134649000Y-63279000I225000J0D01*
G01*
X135099000Y-63279000D01*
G75*
G02*
X135324000Y-63504000I0J-225000D01*
G01*
X135324000Y-64004000D01*
G75*
G02*
X135099000Y-64229000I-225000J0D01*
G01*
X134649000Y-64229000D01*
G75*
G02*
X134424000Y-64004000I0J225000D01*
G01*
G37*
G36*
G01*
X132874000Y-64004000D02*
X132874000Y-63504000D01*
G75*
G02*
X133099000Y-63279000I225000J0D01*
G01*
X133549000Y-63279000D01*
G75*
G02*
X133774000Y-63504000I0J-225000D01*
G01*
X133774000Y-64004000D01*
G75*
G02*
X133549000Y-64229000I-225000J0D01*
G01*
X133099000Y-64229000D01*
G75*
G02*
X132874000Y-64004000I0J225000D01*
G01*
G37*
%TD*%
%TO.C,C27*%
G36*
G01*
X162019000Y-65656000D02*
X161069000Y-65656000D01*
G75*
G02*
X160819000Y-65406000I0J250000D01*
G01*
X160819000Y-64906000D01*
G75*
G02*
X161069000Y-64656000I250000J0D01*
G01*
X162019000Y-64656000D01*
G75*
G02*
X162269000Y-64906000I0J-250000D01*
G01*
X162269000Y-65406000D01*
G75*
G02*
X162019000Y-65656000I-250000J0D01*
G01*
G37*
G36*
G01*
X162019000Y-67556000D02*
X161069000Y-67556000D01*
G75*
G02*
X160819000Y-67306000I0J250000D01*
G01*
X160819000Y-66806000D01*
G75*
G02*
X161069000Y-66556000I250000J0D01*
G01*
X162019000Y-66556000D01*
G75*
G02*
X162269000Y-66806000I0J-250000D01*
G01*
X162269000Y-67306000D01*
G75*
G02*
X162019000Y-67556000I-250000J0D01*
G01*
G37*
%TD*%
%TO.C,C26*%
G36*
G01*
X166454000Y-60448000D02*
X166454000Y-59948000D01*
G75*
G02*
X166679000Y-59723000I225000J0D01*
G01*
X167129000Y-59723000D01*
G75*
G02*
X167354000Y-59948000I0J-225000D01*
G01*
X167354000Y-60448000D01*
G75*
G02*
X167129000Y-60673000I-225000J0D01*
G01*
X166679000Y-60673000D01*
G75*
G02*
X166454000Y-60448000I0J225000D01*
G01*
G37*
G36*
G01*
X164904000Y-60448000D02*
X164904000Y-59948000D01*
G75*
G02*
X165129000Y-59723000I225000J0D01*
G01*
X165579000Y-59723000D01*
G75*
G02*
X165804000Y-59948000I0J-225000D01*
G01*
X165804000Y-60448000D01*
G75*
G02*
X165579000Y-60673000I-225000J0D01*
G01*
X165129000Y-60673000D01*
G75*
G02*
X164904000Y-60448000I0J225000D01*
G01*
G37*
%TD*%
%TO.C,C25*%
G36*
G01*
X169451000Y-64966000D02*
X170401000Y-64966000D01*
G75*
G02*
X170651000Y-65216000I0J-250000D01*
G01*
X170651000Y-65716000D01*
G75*
G02*
X170401000Y-65966000I-250000J0D01*
G01*
X169451000Y-65966000D01*
G75*
G02*
X169201000Y-65716000I0J250000D01*
G01*
X169201000Y-65216000D01*
G75*
G02*
X169451000Y-64966000I250000J0D01*
G01*
G37*
G36*
G01*
X169451000Y-63066000D02*
X170401000Y-63066000D01*
G75*
G02*
X170651000Y-63316000I0J-250000D01*
G01*
X170651000Y-63816000D01*
G75*
G02*
X170401000Y-64066000I-250000J0D01*
G01*
X169451000Y-64066000D01*
G75*
G02*
X169201000Y-63816000I0J250000D01*
G01*
X169201000Y-63316000D01*
G75*
G02*
X169451000Y-63066000I250000J0D01*
G01*
G37*
%TD*%
%TO.C,U9*%
G36*
G01*
X166783000Y-66803000D02*
X166933000Y-66803000D01*
G75*
G02*
X167008000Y-66878000I0J-75000D01*
G01*
X167008000Y-67578000D01*
G75*
G02*
X166933000Y-67653000I-75000J0D01*
G01*
X166783000Y-67653000D01*
G75*
G02*
X166708000Y-67578000I0J75000D01*
G01*
X166708000Y-66878000D01*
G75*
G02*
X166783000Y-66803000I75000J0D01*
G01*
G37*
G36*
G01*
X166283000Y-66803000D02*
X166433000Y-66803000D01*
G75*
G02*
X166508000Y-66878000I0J-75000D01*
G01*
X166508000Y-67578000D01*
G75*
G02*
X166433000Y-67653000I-75000J0D01*
G01*
X166283000Y-67653000D01*
G75*
G02*
X166208000Y-67578000I0J75000D01*
G01*
X166208000Y-66878000D01*
G75*
G02*
X166283000Y-66803000I75000J0D01*
G01*
G37*
G36*
G01*
X165783000Y-66803000D02*
X165933000Y-66803000D01*
G75*
G02*
X166008000Y-66878000I0J-75000D01*
G01*
X166008000Y-67578000D01*
G75*
G02*
X165933000Y-67653000I-75000J0D01*
G01*
X165783000Y-67653000D01*
G75*
G02*
X165708000Y-67578000I0J75000D01*
G01*
X165708000Y-66878000D01*
G75*
G02*
X165783000Y-66803000I75000J0D01*
G01*
G37*
G36*
G01*
X165283000Y-66803000D02*
X165433000Y-66803000D01*
G75*
G02*
X165508000Y-66878000I0J-75000D01*
G01*
X165508000Y-67578000D01*
G75*
G02*
X165433000Y-67653000I-75000J0D01*
G01*
X165283000Y-67653000D01*
G75*
G02*
X165208000Y-67578000I0J75000D01*
G01*
X165208000Y-66878000D01*
G75*
G02*
X165283000Y-66803000I75000J0D01*
G01*
G37*
G36*
G01*
X164783000Y-66803000D02*
X164933000Y-66803000D01*
G75*
G02*
X165008000Y-66878000I0J-75000D01*
G01*
X165008000Y-67578000D01*
G75*
G02*
X164933000Y-67653000I-75000J0D01*
G01*
X164783000Y-67653000D01*
G75*
G02*
X164708000Y-67578000I0J75000D01*
G01*
X164708000Y-66878000D01*
G75*
G02*
X164783000Y-66803000I75000J0D01*
G01*
G37*
G36*
G01*
X164283000Y-66803000D02*
X164433000Y-66803000D01*
G75*
G02*
X164508000Y-66878000I0J-75000D01*
G01*
X164508000Y-67578000D01*
G75*
G02*
X164433000Y-67653000I-75000J0D01*
G01*
X164283000Y-67653000D01*
G75*
G02*
X164208000Y-67578000I0J75000D01*
G01*
X164208000Y-66878000D01*
G75*
G02*
X164283000Y-66803000I75000J0D01*
G01*
G37*
G36*
G01*
X164083000Y-66453000D02*
X164083000Y-66603000D01*
G75*
G02*
X164008000Y-66678000I-75000J0D01*
G01*
X163308000Y-66678000D01*
G75*
G02*
X163233000Y-66603000I0J75000D01*
G01*
X163233000Y-66453000D01*
G75*
G02*
X163308000Y-66378000I75000J0D01*
G01*
X164008000Y-66378000D01*
G75*
G02*
X164083000Y-66453000I0J-75000D01*
G01*
G37*
G36*
G01*
X164083000Y-65953000D02*
X164083000Y-66103000D01*
G75*
G02*
X164008000Y-66178000I-75000J0D01*
G01*
X163308000Y-66178000D01*
G75*
G02*
X163233000Y-66103000I0J75000D01*
G01*
X163233000Y-65953000D01*
G75*
G02*
X163308000Y-65878000I75000J0D01*
G01*
X164008000Y-65878000D01*
G75*
G02*
X164083000Y-65953000I0J-75000D01*
G01*
G37*
G36*
G01*
X164083000Y-65453000D02*
X164083000Y-65603000D01*
G75*
G02*
X164008000Y-65678000I-75000J0D01*
G01*
X163308000Y-65678000D01*
G75*
G02*
X163233000Y-65603000I0J75000D01*
G01*
X163233000Y-65453000D01*
G75*
G02*
X163308000Y-65378000I75000J0D01*
G01*
X164008000Y-65378000D01*
G75*
G02*
X164083000Y-65453000I0J-75000D01*
G01*
G37*
G36*
G01*
X164083000Y-64953000D02*
X164083000Y-65103000D01*
G75*
G02*
X164008000Y-65178000I-75000J0D01*
G01*
X163308000Y-65178000D01*
G75*
G02*
X163233000Y-65103000I0J75000D01*
G01*
X163233000Y-64953000D01*
G75*
G02*
X163308000Y-64878000I75000J0D01*
G01*
X164008000Y-64878000D01*
G75*
G02*
X164083000Y-64953000I0J-75000D01*
G01*
G37*
G36*
G01*
X164083000Y-64453000D02*
X164083000Y-64603000D01*
G75*
G02*
X164008000Y-64678000I-75000J0D01*
G01*
X163308000Y-64678000D01*
G75*
G02*
X163233000Y-64603000I0J75000D01*
G01*
X163233000Y-64453000D01*
G75*
G02*
X163308000Y-64378000I75000J0D01*
G01*
X164008000Y-64378000D01*
G75*
G02*
X164083000Y-64453000I0J-75000D01*
G01*
G37*
G36*
G01*
X164083000Y-63953000D02*
X164083000Y-64103000D01*
G75*
G02*
X164008000Y-64178000I-75000J0D01*
G01*
X163308000Y-64178000D01*
G75*
G02*
X163233000Y-64103000I0J75000D01*
G01*
X163233000Y-63953000D01*
G75*
G02*
X163308000Y-63878000I75000J0D01*
G01*
X164008000Y-63878000D01*
G75*
G02*
X164083000Y-63953000I0J-75000D01*
G01*
G37*
G36*
G01*
X164283000Y-62903000D02*
X164433000Y-62903000D01*
G75*
G02*
X164508000Y-62978000I0J-75000D01*
G01*
X164508000Y-63678000D01*
G75*
G02*
X164433000Y-63753000I-75000J0D01*
G01*
X164283000Y-63753000D01*
G75*
G02*
X164208000Y-63678000I0J75000D01*
G01*
X164208000Y-62978000D01*
G75*
G02*
X164283000Y-62903000I75000J0D01*
G01*
G37*
G36*
G01*
X164783000Y-62903000D02*
X164933000Y-62903000D01*
G75*
G02*
X165008000Y-62978000I0J-75000D01*
G01*
X165008000Y-63678000D01*
G75*
G02*
X164933000Y-63753000I-75000J0D01*
G01*
X164783000Y-63753000D01*
G75*
G02*
X164708000Y-63678000I0J75000D01*
G01*
X164708000Y-62978000D01*
G75*
G02*
X164783000Y-62903000I75000J0D01*
G01*
G37*
G36*
G01*
X165283000Y-62903000D02*
X165433000Y-62903000D01*
G75*
G02*
X165508000Y-62978000I0J-75000D01*
G01*
X165508000Y-63678000D01*
G75*
G02*
X165433000Y-63753000I-75000J0D01*
G01*
X165283000Y-63753000D01*
G75*
G02*
X165208000Y-63678000I0J75000D01*
G01*
X165208000Y-62978000D01*
G75*
G02*
X165283000Y-62903000I75000J0D01*
G01*
G37*
G36*
G01*
X165783000Y-62903000D02*
X165933000Y-62903000D01*
G75*
G02*
X166008000Y-62978000I0J-75000D01*
G01*
X166008000Y-63678000D01*
G75*
G02*
X165933000Y-63753000I-75000J0D01*
G01*
X165783000Y-63753000D01*
G75*
G02*
X165708000Y-63678000I0J75000D01*
G01*
X165708000Y-62978000D01*
G75*
G02*
X165783000Y-62903000I75000J0D01*
G01*
G37*
G36*
G01*
X166283000Y-62903000D02*
X166433000Y-62903000D01*
G75*
G02*
X166508000Y-62978000I0J-75000D01*
G01*
X166508000Y-63678000D01*
G75*
G02*
X166433000Y-63753000I-75000J0D01*
G01*
X166283000Y-63753000D01*
G75*
G02*
X166208000Y-63678000I0J75000D01*
G01*
X166208000Y-62978000D01*
G75*
G02*
X166283000Y-62903000I75000J0D01*
G01*
G37*
G36*
G01*
X166783000Y-62903000D02*
X166933000Y-62903000D01*
G75*
G02*
X167008000Y-62978000I0J-75000D01*
G01*
X167008000Y-63678000D01*
G75*
G02*
X166933000Y-63753000I-75000J0D01*
G01*
X166783000Y-63753000D01*
G75*
G02*
X166708000Y-63678000I0J75000D01*
G01*
X166708000Y-62978000D01*
G75*
G02*
X166783000Y-62903000I75000J0D01*
G01*
G37*
G36*
G01*
X167983000Y-63953000D02*
X167983000Y-64103000D01*
G75*
G02*
X167908000Y-64178000I-75000J0D01*
G01*
X167208000Y-64178000D01*
G75*
G02*
X167133000Y-64103000I0J75000D01*
G01*
X167133000Y-63953000D01*
G75*
G02*
X167208000Y-63878000I75000J0D01*
G01*
X167908000Y-63878000D01*
G75*
G02*
X167983000Y-63953000I0J-75000D01*
G01*
G37*
G36*
G01*
X167983000Y-64453000D02*
X167983000Y-64603000D01*
G75*
G02*
X167908000Y-64678000I-75000J0D01*
G01*
X167208000Y-64678000D01*
G75*
G02*
X167133000Y-64603000I0J75000D01*
G01*
X167133000Y-64453000D01*
G75*
G02*
X167208000Y-64378000I75000J0D01*
G01*
X167908000Y-64378000D01*
G75*
G02*
X167983000Y-64453000I0J-75000D01*
G01*
G37*
G36*
G01*
X167983000Y-64953000D02*
X167983000Y-65103000D01*
G75*
G02*
X167908000Y-65178000I-75000J0D01*
G01*
X167208000Y-65178000D01*
G75*
G02*
X167133000Y-65103000I0J75000D01*
G01*
X167133000Y-64953000D01*
G75*
G02*
X167208000Y-64878000I75000J0D01*
G01*
X167908000Y-64878000D01*
G75*
G02*
X167983000Y-64953000I0J-75000D01*
G01*
G37*
G36*
G01*
X167983000Y-65453000D02*
X167983000Y-65603000D01*
G75*
G02*
X167908000Y-65678000I-75000J0D01*
G01*
X167208000Y-65678000D01*
G75*
G02*
X167133000Y-65603000I0J75000D01*
G01*
X167133000Y-65453000D01*
G75*
G02*
X167208000Y-65378000I75000J0D01*
G01*
X167908000Y-65378000D01*
G75*
G02*
X167983000Y-65453000I0J-75000D01*
G01*
G37*
G36*
G01*
X167983000Y-65953000D02*
X167983000Y-66103000D01*
G75*
G02*
X167908000Y-66178000I-75000J0D01*
G01*
X167208000Y-66178000D01*
G75*
G02*
X167133000Y-66103000I0J75000D01*
G01*
X167133000Y-65953000D01*
G75*
G02*
X167208000Y-65878000I75000J0D01*
G01*
X167908000Y-65878000D01*
G75*
G02*
X167983000Y-65953000I0J-75000D01*
G01*
G37*
G36*
G01*
X167983000Y-66453000D02*
X167983000Y-66603000D01*
G75*
G02*
X167908000Y-66678000I-75000J0D01*
G01*
X167208000Y-66678000D01*
G75*
G02*
X167133000Y-66603000I0J75000D01*
G01*
X167133000Y-66453000D01*
G75*
G02*
X167208000Y-66378000I75000J0D01*
G01*
X167908000Y-66378000D01*
G75*
G02*
X167983000Y-66453000I0J-75000D01*
G01*
G37*
%TD*%
%TO.C,C23*%
G36*
G01*
X131514000Y-83025000D02*
X131514000Y-82075000D01*
G75*
G02*
X131764000Y-81825000I250000J0D01*
G01*
X132264000Y-81825000D01*
G75*
G02*
X132514000Y-82075000I0J-250000D01*
G01*
X132514000Y-83025000D01*
G75*
G02*
X132264000Y-83275000I-250000J0D01*
G01*
X131764000Y-83275000D01*
G75*
G02*
X131514000Y-83025000I0J250000D01*
G01*
G37*
G36*
G01*
X129614000Y-83025000D02*
X129614000Y-82075000D01*
G75*
G02*
X129864000Y-81825000I250000J0D01*
G01*
X130364000Y-81825000D01*
G75*
G02*
X130614000Y-82075000I0J-250000D01*
G01*
X130614000Y-83025000D01*
G75*
G02*
X130364000Y-83275000I-250000J0D01*
G01*
X129864000Y-83275000D01*
G75*
G02*
X129614000Y-83025000I0J250000D01*
G01*
G37*
%TD*%
%TO.C,C17*%
G36*
G01*
X144671000Y-71174000D02*
X145621000Y-71174000D01*
G75*
G02*
X145871000Y-71424000I0J-250000D01*
G01*
X145871000Y-71924000D01*
G75*
G02*
X145621000Y-72174000I-250000J0D01*
G01*
X144671000Y-72174000D01*
G75*
G02*
X144421000Y-71924000I0J250000D01*
G01*
X144421000Y-71424000D01*
G75*
G02*
X144671000Y-71174000I250000J0D01*
G01*
G37*
G36*
G01*
X144671000Y-69274000D02*
X145621000Y-69274000D01*
G75*
G02*
X145871000Y-69524000I0J-250000D01*
G01*
X145871000Y-70024000D01*
G75*
G02*
X145621000Y-70274000I-250000J0D01*
G01*
X144671000Y-70274000D01*
G75*
G02*
X144421000Y-70024000I0J250000D01*
G01*
X144421000Y-69524000D01*
G75*
G02*
X144671000Y-69274000I250000J0D01*
G01*
G37*
%TD*%
%TO.C,C22*%
G36*
G01*
X168122000Y-76997999D02*
X168122000Y-78298001D01*
G75*
G02*
X167872001Y-78548000I-249999J0D01*
G01*
X167221999Y-78548000D01*
G75*
G02*
X166972000Y-78298001I0J249999D01*
G01*
X166972000Y-76997999D01*
G75*
G02*
X167221999Y-76748000I249999J0D01*
G01*
X167872001Y-76748000D01*
G75*
G02*
X168122000Y-76997999I0J-249999D01*
G01*
G37*
G36*
G01*
X171072000Y-76997999D02*
X171072000Y-78298001D01*
G75*
G02*
X170822001Y-78548000I-249999J0D01*
G01*
X170171999Y-78548000D01*
G75*
G02*
X169922000Y-78298001I0J249999D01*
G01*
X169922000Y-76997999D01*
G75*
G02*
X170171999Y-76748000I249999J0D01*
G01*
X170822001Y-76748000D01*
G75*
G02*
X171072000Y-76997999I0J-249999D01*
G01*
G37*
%TD*%
%TO.C,C21*%
G36*
G01*
X143760000Y-90998001D02*
X143760000Y-89697999D01*
G75*
G02*
X144009999Y-89448000I249999J0D01*
G01*
X144660001Y-89448000D01*
G75*
G02*
X144910000Y-89697999I0J-249999D01*
G01*
X144910000Y-90998001D01*
G75*
G02*
X144660001Y-91248000I-249999J0D01*
G01*
X144009999Y-91248000D01*
G75*
G02*
X143760000Y-90998001I0J249999D01*
G01*
G37*
G36*
G01*
X140810000Y-90998001D02*
X140810000Y-89697999D01*
G75*
G02*
X141059999Y-89448000I249999J0D01*
G01*
X141710001Y-89448000D01*
G75*
G02*
X141960000Y-89697999I0J-249999D01*
G01*
X141960000Y-90998001D01*
G75*
G02*
X141710001Y-91248000I-249999J0D01*
G01*
X141059999Y-91248000D01*
G75*
G02*
X140810000Y-90998001I0J249999D01*
G01*
G37*
%TD*%
%TO.C,C20*%
G36*
G01*
X132588001Y-68415000D02*
X131287999Y-68415000D01*
G75*
G02*
X131038000Y-68165001I0J249999D01*
G01*
X131038000Y-67514999D01*
G75*
G02*
X131287999Y-67265000I249999J0D01*
G01*
X132588001Y-67265000D01*
G75*
G02*
X132838000Y-67514999I0J-249999D01*
G01*
X132838000Y-68165001D01*
G75*
G02*
X132588001Y-68415000I-249999J0D01*
G01*
G37*
G36*
G01*
X132588001Y-71365000D02*
X131287999Y-71365000D01*
G75*
G02*
X131038000Y-71115001I0J249999D01*
G01*
X131038000Y-70464999D01*
G75*
G02*
X131287999Y-70215000I249999J0D01*
G01*
X132588001Y-70215000D01*
G75*
G02*
X132838000Y-70464999I0J-249999D01*
G01*
X132838000Y-71115001D01*
G75*
G02*
X132588001Y-71365000I-249999J0D01*
G01*
G37*
%TD*%
%TO.C,C19*%
G36*
G01*
X131822000Y-79568001D02*
X131822000Y-78267999D01*
G75*
G02*
X132071999Y-78018000I249999J0D01*
G01*
X132722001Y-78018000D01*
G75*
G02*
X132972000Y-78267999I0J-249999D01*
G01*
X132972000Y-79568001D01*
G75*
G02*
X132722001Y-79818000I-249999J0D01*
G01*
X132071999Y-79818000D01*
G75*
G02*
X131822000Y-79568001I0J249999D01*
G01*
G37*
G36*
G01*
X128872000Y-79568001D02*
X128872000Y-78267999D01*
G75*
G02*
X129121999Y-78018000I249999J0D01*
G01*
X129772001Y-78018000D01*
G75*
G02*
X130022000Y-78267999I0J-249999D01*
G01*
X130022000Y-79568001D01*
G75*
G02*
X129772001Y-79818000I-249999J0D01*
G01*
X129121999Y-79818000D01*
G75*
G02*
X128872000Y-79568001I0J249999D01*
G01*
G37*
%TD*%
%TO.C,C15*%
G36*
G01*
X147013000Y-67884001D02*
X147013000Y-66583999D01*
G75*
G02*
X147262999Y-66334000I249999J0D01*
G01*
X147913001Y-66334000D01*
G75*
G02*
X148163000Y-66583999I0J-249999D01*
G01*
X148163000Y-67884001D01*
G75*
G02*
X147913001Y-68134000I-249999J0D01*
G01*
X147262999Y-68134000D01*
G75*
G02*
X147013000Y-67884001I0J249999D01*
G01*
G37*
G36*
G01*
X144063000Y-67884001D02*
X144063000Y-66583999D01*
G75*
G02*
X144312999Y-66334000I249999J0D01*
G01*
X144963001Y-66334000D01*
G75*
G02*
X145213000Y-66583999I0J-249999D01*
G01*
X145213000Y-67884001D01*
G75*
G02*
X144963001Y-68134000I-249999J0D01*
G01*
X144312999Y-68134000D01*
G75*
G02*
X144063000Y-67884001I0J249999D01*
G01*
G37*
%TD*%
%TO.C,R3*%
G36*
G01*
X137697000Y-54047000D02*
X137697000Y-53497000D01*
G75*
G02*
X137897000Y-53297000I200000J0D01*
G01*
X138297000Y-53297000D01*
G75*
G02*
X138497000Y-53497000I0J-200000D01*
G01*
X138497000Y-54047000D01*
G75*
G02*
X138297000Y-54247000I-200000J0D01*
G01*
X137897000Y-54247000D01*
G75*
G02*
X137697000Y-54047000I0J200000D01*
G01*
G37*
G36*
G01*
X136047000Y-54047000D02*
X136047000Y-53497000D01*
G75*
G02*
X136247000Y-53297000I200000J0D01*
G01*
X136647000Y-53297000D01*
G75*
G02*
X136847000Y-53497000I0J-200000D01*
G01*
X136847000Y-54047000D01*
G75*
G02*
X136647000Y-54247000I-200000J0D01*
G01*
X136247000Y-54247000D01*
G75*
G02*
X136047000Y-54047000I0J200000D01*
G01*
G37*
%TD*%
%TO.C,D15*%
G36*
G01*
X133812000Y-54028250D02*
X133812000Y-53515750D01*
G75*
G02*
X134030750Y-53297000I218750J0D01*
G01*
X134468250Y-53297000D01*
G75*
G02*
X134687000Y-53515750I0J-218750D01*
G01*
X134687000Y-54028250D01*
G75*
G02*
X134468250Y-54247000I-218750J0D01*
G01*
X134030750Y-54247000D01*
G75*
G02*
X133812000Y-54028250I0J218750D01*
G01*
G37*
G36*
G01*
X132237000Y-54028250D02*
X132237000Y-53515750D01*
G75*
G02*
X132455750Y-53297000I218750J0D01*
G01*
X132893250Y-53297000D01*
G75*
G02*
X133112000Y-53515750I0J-218750D01*
G01*
X133112000Y-54028250D01*
G75*
G02*
X132893250Y-54247000I-218750J0D01*
G01*
X132455750Y-54247000D01*
G75*
G02*
X132237000Y-54028250I0J218750D01*
G01*
G37*
%TD*%
D11*
%TO.C,J5*%
X151654000Y-93650000D03*
X148654000Y-93650000D03*
X145654000Y-93650000D03*
X151654000Y-96650000D03*
X148654000Y-96650000D03*
G36*
G01*
X144904000Y-97150000D02*
X144904000Y-96150000D01*
G75*
G02*
X145154000Y-95900000I250000J0D01*
G01*
X146154000Y-95900000D01*
G75*
G02*
X146404000Y-96150000I0J-250000D01*
G01*
X146404000Y-97150000D01*
G75*
G02*
X146154000Y-97400000I-250000J0D01*
G01*
X145154000Y-97400000D01*
G75*
G02*
X144904000Y-97150000I0J250000D01*
G01*
G37*
D12*
X154654000Y-92710000D03*
X142654000Y-92710000D03*
%TD*%
D11*
%TO.C,J8*%
X177672000Y-93698000D03*
X174672000Y-93698000D03*
X171672000Y-93698000D03*
X168672000Y-93698000D03*
X165672000Y-93698000D03*
X162672000Y-93698000D03*
X177672000Y-96698000D03*
X174672000Y-96698000D03*
X171672000Y-96698000D03*
X168672000Y-96698000D03*
X165672000Y-96698000D03*
G36*
G01*
X161922000Y-97198000D02*
X161922000Y-96198000D01*
G75*
G02*
X162172000Y-95948000I250000J0D01*
G01*
X163172000Y-95948000D01*
G75*
G02*
X163422000Y-96198000I0J-250000D01*
G01*
X163422000Y-97198000D01*
G75*
G02*
X163172000Y-97448000I-250000J0D01*
G01*
X162172000Y-97448000D01*
G75*
G02*
X161922000Y-97198000I0J250000D01*
G01*
G37*
D12*
X180672000Y-92758000D03*
X159672000Y-92758000D03*
%TD*%
%TO.C,U5*%
G36*
G01*
X135198000Y-71857500D02*
X134998000Y-71857500D01*
G75*
G02*
X134898000Y-71757500I0J100000D01*
G01*
X134898000Y-70482500D01*
G75*
G02*
X134998000Y-70382500I100000J0D01*
G01*
X135198000Y-70382500D01*
G75*
G02*
X135298000Y-70482500I0J-100000D01*
G01*
X135298000Y-71757500D01*
G75*
G02*
X135198000Y-71857500I-100000J0D01*
G01*
G37*
G36*
G01*
X135848000Y-71857500D02*
X135648000Y-71857500D01*
G75*
G02*
X135548000Y-71757500I0J100000D01*
G01*
X135548000Y-70482500D01*
G75*
G02*
X135648000Y-70382500I100000J0D01*
G01*
X135848000Y-70382500D01*
G75*
G02*
X135948000Y-70482500I0J-100000D01*
G01*
X135948000Y-71757500D01*
G75*
G02*
X135848000Y-71857500I-100000J0D01*
G01*
G37*
G36*
G01*
X136498000Y-71857500D02*
X136298000Y-71857500D01*
G75*
G02*
X136198000Y-71757500I0J100000D01*
G01*
X136198000Y-70482500D01*
G75*
G02*
X136298000Y-70382500I100000J0D01*
G01*
X136498000Y-70382500D01*
G75*
G02*
X136598000Y-70482500I0J-100000D01*
G01*
X136598000Y-71757500D01*
G75*
G02*
X136498000Y-71857500I-100000J0D01*
G01*
G37*
G36*
G01*
X137148000Y-71857500D02*
X136948000Y-71857500D01*
G75*
G02*
X136848000Y-71757500I0J100000D01*
G01*
X136848000Y-70482500D01*
G75*
G02*
X136948000Y-70382500I100000J0D01*
G01*
X137148000Y-70382500D01*
G75*
G02*
X137248000Y-70482500I0J-100000D01*
G01*
X137248000Y-71757500D01*
G75*
G02*
X137148000Y-71857500I-100000J0D01*
G01*
G37*
G36*
G01*
X137148000Y-77582500D02*
X136948000Y-77582500D01*
G75*
G02*
X136848000Y-77482500I0J100000D01*
G01*
X136848000Y-76207500D01*
G75*
G02*
X136948000Y-76107500I100000J0D01*
G01*
X137148000Y-76107500D01*
G75*
G02*
X137248000Y-76207500I0J-100000D01*
G01*
X137248000Y-77482500D01*
G75*
G02*
X137148000Y-77582500I-100000J0D01*
G01*
G37*
G36*
G01*
X136498000Y-77582500D02*
X136298000Y-77582500D01*
G75*
G02*
X136198000Y-77482500I0J100000D01*
G01*
X136198000Y-76207500D01*
G75*
G02*
X136298000Y-76107500I100000J0D01*
G01*
X136498000Y-76107500D01*
G75*
G02*
X136598000Y-76207500I0J-100000D01*
G01*
X136598000Y-77482500D01*
G75*
G02*
X136498000Y-77582500I-100000J0D01*
G01*
G37*
G36*
G01*
X135848000Y-77582500D02*
X135648000Y-77582500D01*
G75*
G02*
X135548000Y-77482500I0J100000D01*
G01*
X135548000Y-76207500D01*
G75*
G02*
X135648000Y-76107500I100000J0D01*
G01*
X135848000Y-76107500D01*
G75*
G02*
X135948000Y-76207500I0J-100000D01*
G01*
X135948000Y-77482500D01*
G75*
G02*
X135848000Y-77582500I-100000J0D01*
G01*
G37*
G36*
G01*
X135198000Y-77582500D02*
X134998000Y-77582500D01*
G75*
G02*
X134898000Y-77482500I0J100000D01*
G01*
X134898000Y-76207500D01*
G75*
G02*
X134998000Y-76107500I100000J0D01*
G01*
X135198000Y-76107500D01*
G75*
G02*
X135298000Y-76207500I0J-100000D01*
G01*
X135298000Y-77482500D01*
G75*
G02*
X135198000Y-77582500I-100000J0D01*
G01*
G37*
%TD*%
%TO.C,C12*%
G36*
G01*
X137498000Y-67052000D02*
X137498000Y-66552000D01*
G75*
G02*
X137723000Y-66327000I225000J0D01*
G01*
X138173000Y-66327000D01*
G75*
G02*
X138398000Y-66552000I0J-225000D01*
G01*
X138398000Y-67052000D01*
G75*
G02*
X138173000Y-67277000I-225000J0D01*
G01*
X137723000Y-67277000D01*
G75*
G02*
X137498000Y-67052000I0J225000D01*
G01*
G37*
G36*
G01*
X135948000Y-67052000D02*
X135948000Y-66552000D01*
G75*
G02*
X136173000Y-66327000I225000J0D01*
G01*
X136623000Y-66327000D01*
G75*
G02*
X136848000Y-66552000I0J-225000D01*
G01*
X136848000Y-67052000D01*
G75*
G02*
X136623000Y-67277000I-225000J0D01*
G01*
X136173000Y-67277000D01*
G75*
G02*
X135948000Y-67052000I0J225000D01*
G01*
G37*
%TD*%
%TO.C,R9*%
G36*
G01*
X139721000Y-73426000D02*
X139171000Y-73426000D01*
G75*
G02*
X138971000Y-73226000I0J200000D01*
G01*
X138971000Y-72826000D01*
G75*
G02*
X139171000Y-72626000I200000J0D01*
G01*
X139721000Y-72626000D01*
G75*
G02*
X139921000Y-72826000I0J-200000D01*
G01*
X139921000Y-73226000D01*
G75*
G02*
X139721000Y-73426000I-200000J0D01*
G01*
G37*
G36*
G01*
X139721000Y-75076000D02*
X139171000Y-75076000D01*
G75*
G02*
X138971000Y-74876000I0J200000D01*
G01*
X138971000Y-74476000D01*
G75*
G02*
X139171000Y-74276000I200000J0D01*
G01*
X139721000Y-74276000D01*
G75*
G02*
X139921000Y-74476000I0J-200000D01*
G01*
X139921000Y-74876000D01*
G75*
G02*
X139721000Y-75076000I-200000J0D01*
G01*
G37*
%TD*%
D13*
%TO.C,J9*%
X187706000Y-53848000D03*
D14*
X185166000Y-53848000D03*
%TD*%
D15*
%TO.C,REF\u002A\u002A*%
X123444000Y-53340000D03*
%TD*%
%TO.C,REF\u002A\u002A*%
X123444000Y-96520000D03*
%TD*%
%TO.C,REF\u002A\u002A*%
X196596000Y-53340000D03*
%TD*%
%TO.C,REF\u002A\u002A*%
X196596000Y-96520000D03*
%TD*%
D16*
%TO.C,U8*%
X171695000Y-81423000D03*
X171695000Y-81923000D03*
X171695000Y-82423000D03*
X171695000Y-82923000D03*
X171695000Y-83423000D03*
X167395000Y-83423000D03*
X167395000Y-82923000D03*
X167395000Y-82423000D03*
X167395000Y-81923000D03*
X167395000Y-81423000D03*
%TD*%
D17*
%TO.C,U7*%
X139220000Y-85394000D03*
X134620000Y-85394000D03*
X136920000Y-85394000D03*
D18*
X136920000Y-91694000D03*
%TD*%
D19*
%TO.C,U6*%
X126492000Y-73152000D03*
X126492000Y-75692000D03*
D20*
X126492000Y-78232000D03*
%TD*%
%TO.C,U3*%
G36*
G01*
X144383000Y-77885000D02*
X144183000Y-77885000D01*
G75*
G02*
X144083000Y-77785000I0J100000D01*
G01*
X144083000Y-76510000D01*
G75*
G02*
X144183000Y-76410000I100000J0D01*
G01*
X144383000Y-76410000D01*
G75*
G02*
X144483000Y-76510000I0J-100000D01*
G01*
X144483000Y-77785000D01*
G75*
G02*
X144383000Y-77885000I-100000J0D01*
G01*
G37*
G36*
G01*
X145033000Y-77885000D02*
X144833000Y-77885000D01*
G75*
G02*
X144733000Y-77785000I0J100000D01*
G01*
X144733000Y-76510000D01*
G75*
G02*
X144833000Y-76410000I100000J0D01*
G01*
X145033000Y-76410000D01*
G75*
G02*
X145133000Y-76510000I0J-100000D01*
G01*
X145133000Y-77785000D01*
G75*
G02*
X145033000Y-77885000I-100000J0D01*
G01*
G37*
G36*
G01*
X145683000Y-77885000D02*
X145483000Y-77885000D01*
G75*
G02*
X145383000Y-77785000I0J100000D01*
G01*
X145383000Y-76510000D01*
G75*
G02*
X145483000Y-76410000I100000J0D01*
G01*
X145683000Y-76410000D01*
G75*
G02*
X145783000Y-76510000I0J-100000D01*
G01*
X145783000Y-77785000D01*
G75*
G02*
X145683000Y-77885000I-100000J0D01*
G01*
G37*
G36*
G01*
X146333000Y-77885000D02*
X146133000Y-77885000D01*
G75*
G02*
X146033000Y-77785000I0J100000D01*
G01*
X146033000Y-76510000D01*
G75*
G02*
X146133000Y-76410000I100000J0D01*
G01*
X146333000Y-76410000D01*
G75*
G02*
X146433000Y-76510000I0J-100000D01*
G01*
X146433000Y-77785000D01*
G75*
G02*
X146333000Y-77885000I-100000J0D01*
G01*
G37*
G36*
G01*
X146983000Y-77885000D02*
X146783000Y-77885000D01*
G75*
G02*
X146683000Y-77785000I0J100000D01*
G01*
X146683000Y-76510000D01*
G75*
G02*
X146783000Y-76410000I100000J0D01*
G01*
X146983000Y-76410000D01*
G75*
G02*
X147083000Y-76510000I0J-100000D01*
G01*
X147083000Y-77785000D01*
G75*
G02*
X146983000Y-77885000I-100000J0D01*
G01*
G37*
G36*
G01*
X147633000Y-77885000D02*
X147433000Y-77885000D01*
G75*
G02*
X147333000Y-77785000I0J100000D01*
G01*
X147333000Y-76510000D01*
G75*
G02*
X147433000Y-76410000I100000J0D01*
G01*
X147633000Y-76410000D01*
G75*
G02*
X147733000Y-76510000I0J-100000D01*
G01*
X147733000Y-77785000D01*
G75*
G02*
X147633000Y-77885000I-100000J0D01*
G01*
G37*
G36*
G01*
X148283000Y-77885000D02*
X148083000Y-77885000D01*
G75*
G02*
X147983000Y-77785000I0J100000D01*
G01*
X147983000Y-76510000D01*
G75*
G02*
X148083000Y-76410000I100000J0D01*
G01*
X148283000Y-76410000D01*
G75*
G02*
X148383000Y-76510000I0J-100000D01*
G01*
X148383000Y-77785000D01*
G75*
G02*
X148283000Y-77885000I-100000J0D01*
G01*
G37*
G36*
G01*
X148933000Y-77885000D02*
X148733000Y-77885000D01*
G75*
G02*
X148633000Y-77785000I0J100000D01*
G01*
X148633000Y-76510000D01*
G75*
G02*
X148733000Y-76410000I100000J0D01*
G01*
X148933000Y-76410000D01*
G75*
G02*
X149033000Y-76510000I0J-100000D01*
G01*
X149033000Y-77785000D01*
G75*
G02*
X148933000Y-77885000I-100000J0D01*
G01*
G37*
G36*
G01*
X148933000Y-83610000D02*
X148733000Y-83610000D01*
G75*
G02*
X148633000Y-83510000I0J100000D01*
G01*
X148633000Y-82235000D01*
G75*
G02*
X148733000Y-82135000I100000J0D01*
G01*
X148933000Y-82135000D01*
G75*
G02*
X149033000Y-82235000I0J-100000D01*
G01*
X149033000Y-83510000D01*
G75*
G02*
X148933000Y-83610000I-100000J0D01*
G01*
G37*
G36*
G01*
X148283000Y-83610000D02*
X148083000Y-83610000D01*
G75*
G02*
X147983000Y-83510000I0J100000D01*
G01*
X147983000Y-82235000D01*
G75*
G02*
X148083000Y-82135000I100000J0D01*
G01*
X148283000Y-82135000D01*
G75*
G02*
X148383000Y-82235000I0J-100000D01*
G01*
X148383000Y-83510000D01*
G75*
G02*
X148283000Y-83610000I-100000J0D01*
G01*
G37*
G36*
G01*
X147633000Y-83610000D02*
X147433000Y-83610000D01*
G75*
G02*
X147333000Y-83510000I0J100000D01*
G01*
X147333000Y-82235000D01*
G75*
G02*
X147433000Y-82135000I100000J0D01*
G01*
X147633000Y-82135000D01*
G75*
G02*
X147733000Y-82235000I0J-100000D01*
G01*
X147733000Y-83510000D01*
G75*
G02*
X147633000Y-83610000I-100000J0D01*
G01*
G37*
G36*
G01*
X146983000Y-83610000D02*
X146783000Y-83610000D01*
G75*
G02*
X146683000Y-83510000I0J100000D01*
G01*
X146683000Y-82235000D01*
G75*
G02*
X146783000Y-82135000I100000J0D01*
G01*
X146983000Y-82135000D01*
G75*
G02*
X147083000Y-82235000I0J-100000D01*
G01*
X147083000Y-83510000D01*
G75*
G02*
X146983000Y-83610000I-100000J0D01*
G01*
G37*
G36*
G01*
X146333000Y-83610000D02*
X146133000Y-83610000D01*
G75*
G02*
X146033000Y-83510000I0J100000D01*
G01*
X146033000Y-82235000D01*
G75*
G02*
X146133000Y-82135000I100000J0D01*
G01*
X146333000Y-82135000D01*
G75*
G02*
X146433000Y-82235000I0J-100000D01*
G01*
X146433000Y-83510000D01*
G75*
G02*
X146333000Y-83610000I-100000J0D01*
G01*
G37*
G36*
G01*
X145683000Y-83610000D02*
X145483000Y-83610000D01*
G75*
G02*
X145383000Y-83510000I0J100000D01*
G01*
X145383000Y-82235000D01*
G75*
G02*
X145483000Y-82135000I100000J0D01*
G01*
X145683000Y-82135000D01*
G75*
G02*
X145783000Y-82235000I0J-100000D01*
G01*
X145783000Y-83510000D01*
G75*
G02*
X145683000Y-83610000I-100000J0D01*
G01*
G37*
G36*
G01*
X145033000Y-83610000D02*
X144833000Y-83610000D01*
G75*
G02*
X144733000Y-83510000I0J100000D01*
G01*
X144733000Y-82235000D01*
G75*
G02*
X144833000Y-82135000I100000J0D01*
G01*
X145033000Y-82135000D01*
G75*
G02*
X145133000Y-82235000I0J-100000D01*
G01*
X145133000Y-83510000D01*
G75*
G02*
X145033000Y-83610000I-100000J0D01*
G01*
G37*
G36*
G01*
X144383000Y-83610000D02*
X144183000Y-83610000D01*
G75*
G02*
X144083000Y-83510000I0J100000D01*
G01*
X144083000Y-82235000D01*
G75*
G02*
X144183000Y-82135000I100000J0D01*
G01*
X144383000Y-82135000D01*
G75*
G02*
X144483000Y-82235000I0J-100000D01*
G01*
X144483000Y-83510000D01*
G75*
G02*
X144383000Y-83610000I-100000J0D01*
G01*
G37*
%TD*%
D21*
%TO.C,U2*%
X186774000Y-60706000D03*
X186774000Y-62606000D03*
X184574000Y-62606000D03*
X184574000Y-61656000D03*
X184574000Y-60706000D03*
%TD*%
%TO.C,U1*%
G36*
G01*
X158346000Y-78208000D02*
X158646000Y-78208000D01*
G75*
G02*
X158796000Y-78358000I0J-150000D01*
G01*
X158796000Y-80008000D01*
G75*
G02*
X158646000Y-80158000I-150000J0D01*
G01*
X158346000Y-80158000D01*
G75*
G02*
X158196000Y-80008000I0J150000D01*
G01*
X158196000Y-78358000D01*
G75*
G02*
X158346000Y-78208000I150000J0D01*
G01*
G37*
G36*
G01*
X157076000Y-78208000D02*
X157376000Y-78208000D01*
G75*
G02*
X157526000Y-78358000I0J-150000D01*
G01*
X157526000Y-80008000D01*
G75*
G02*
X157376000Y-80158000I-150000J0D01*
G01*
X157076000Y-80158000D01*
G75*
G02*
X156926000Y-80008000I0J150000D01*
G01*
X156926000Y-78358000D01*
G75*
G02*
X157076000Y-78208000I150000J0D01*
G01*
G37*
G36*
G01*
X155806000Y-78208000D02*
X156106000Y-78208000D01*
G75*
G02*
X156256000Y-78358000I0J-150000D01*
G01*
X156256000Y-80008000D01*
G75*
G02*
X156106000Y-80158000I-150000J0D01*
G01*
X155806000Y-80158000D01*
G75*
G02*
X155656000Y-80008000I0J150000D01*
G01*
X155656000Y-78358000D01*
G75*
G02*
X155806000Y-78208000I150000J0D01*
G01*
G37*
G36*
G01*
X154536000Y-78208000D02*
X154836000Y-78208000D01*
G75*
G02*
X154986000Y-78358000I0J-150000D01*
G01*
X154986000Y-80008000D01*
G75*
G02*
X154836000Y-80158000I-150000J0D01*
G01*
X154536000Y-80158000D01*
G75*
G02*
X154386000Y-80008000I0J150000D01*
G01*
X154386000Y-78358000D01*
G75*
G02*
X154536000Y-78208000I150000J0D01*
G01*
G37*
G36*
G01*
X154536000Y-73258000D02*
X154836000Y-73258000D01*
G75*
G02*
X154986000Y-73408000I0J-150000D01*
G01*
X154986000Y-75058000D01*
G75*
G02*
X154836000Y-75208000I-150000J0D01*
G01*
X154536000Y-75208000D01*
G75*
G02*
X154386000Y-75058000I0J150000D01*
G01*
X154386000Y-73408000D01*
G75*
G02*
X154536000Y-73258000I150000J0D01*
G01*
G37*
G36*
G01*
X155806000Y-73258000D02*
X156106000Y-73258000D01*
G75*
G02*
X156256000Y-73408000I0J-150000D01*
G01*
X156256000Y-75058000D01*
G75*
G02*
X156106000Y-75208000I-150000J0D01*
G01*
X155806000Y-75208000D01*
G75*
G02*
X155656000Y-75058000I0J150000D01*
G01*
X155656000Y-73408000D01*
G75*
G02*
X155806000Y-73258000I150000J0D01*
G01*
G37*
G36*
G01*
X157076000Y-73258000D02*
X157376000Y-73258000D01*
G75*
G02*
X157526000Y-73408000I0J-150000D01*
G01*
X157526000Y-75058000D01*
G75*
G02*
X157376000Y-75208000I-150000J0D01*
G01*
X157076000Y-75208000D01*
G75*
G02*
X156926000Y-75058000I0J150000D01*
G01*
X156926000Y-73408000D01*
G75*
G02*
X157076000Y-73258000I150000J0D01*
G01*
G37*
G36*
G01*
X158346000Y-73258000D02*
X158646000Y-73258000D01*
G75*
G02*
X158796000Y-73408000I0J-150000D01*
G01*
X158796000Y-75058000D01*
G75*
G02*
X158646000Y-75208000I-150000J0D01*
G01*
X158346000Y-75208000D01*
G75*
G02*
X158196000Y-75058000I0J150000D01*
G01*
X158196000Y-73408000D01*
G75*
G02*
X158346000Y-73258000I150000J0D01*
G01*
G37*
%TD*%
D22*
%TO.C,TP7*%
X126492000Y-68580000D03*
%TD*%
%TO.C,R21*%
G36*
G01*
X182734000Y-78507000D02*
X182734000Y-77957000D01*
G75*
G02*
X182934000Y-77757000I200000J0D01*
G01*
X183334000Y-77757000D01*
G75*
G02*
X183534000Y-77957000I0J-200000D01*
G01*
X183534000Y-78507000D01*
G75*
G02*
X183334000Y-78707000I-200000J0D01*
G01*
X182934000Y-78707000D01*
G75*
G02*
X182734000Y-78507000I0J200000D01*
G01*
G37*
G36*
G01*
X181084000Y-78507000D02*
X181084000Y-77957000D01*
G75*
G02*
X181284000Y-77757000I200000J0D01*
G01*
X181684000Y-77757000D01*
G75*
G02*
X181884000Y-77957000I0J-200000D01*
G01*
X181884000Y-78507000D01*
G75*
G02*
X181684000Y-78707000I-200000J0D01*
G01*
X181284000Y-78707000D01*
G75*
G02*
X181084000Y-78507000I0J200000D01*
G01*
G37*
%TD*%
%TO.C,R19*%
G36*
G01*
X179091000Y-79839000D02*
X178541000Y-79839000D01*
G75*
G02*
X178341000Y-79639000I0J200000D01*
G01*
X178341000Y-79239000D01*
G75*
G02*
X178541000Y-79039000I200000J0D01*
G01*
X179091000Y-79039000D01*
G75*
G02*
X179291000Y-79239000I0J-200000D01*
G01*
X179291000Y-79639000D01*
G75*
G02*
X179091000Y-79839000I-200000J0D01*
G01*
G37*
G36*
G01*
X179091000Y-81489000D02*
X178541000Y-81489000D01*
G75*
G02*
X178341000Y-81289000I0J200000D01*
G01*
X178341000Y-80889000D01*
G75*
G02*
X178541000Y-80689000I200000J0D01*
G01*
X179091000Y-80689000D01*
G75*
G02*
X179291000Y-80889000I0J-200000D01*
G01*
X179291000Y-81289000D01*
G75*
G02*
X179091000Y-81489000I-200000J0D01*
G01*
G37*
%TD*%
%TO.C,R18*%
G36*
G01*
X182734000Y-81809000D02*
X182734000Y-81259000D01*
G75*
G02*
X182934000Y-81059000I200000J0D01*
G01*
X183334000Y-81059000D01*
G75*
G02*
X183534000Y-81259000I0J-200000D01*
G01*
X183534000Y-81809000D01*
G75*
G02*
X183334000Y-82009000I-200000J0D01*
G01*
X182934000Y-82009000D01*
G75*
G02*
X182734000Y-81809000I0J200000D01*
G01*
G37*
G36*
G01*
X181084000Y-81809000D02*
X181084000Y-81259000D01*
G75*
G02*
X181284000Y-81059000I200000J0D01*
G01*
X181684000Y-81059000D01*
G75*
G02*
X181884000Y-81259000I0J-200000D01*
G01*
X181884000Y-81809000D01*
G75*
G02*
X181684000Y-82009000I-200000J0D01*
G01*
X181284000Y-82009000D01*
G75*
G02*
X181084000Y-81809000I0J200000D01*
G01*
G37*
%TD*%
%TO.C,R17*%
G36*
G01*
X186036000Y-89429000D02*
X186036000Y-88879000D01*
G75*
G02*
X186236000Y-88679000I200000J0D01*
G01*
X186636000Y-88679000D01*
G75*
G02*
X186836000Y-88879000I0J-200000D01*
G01*
X186836000Y-89429000D01*
G75*
G02*
X186636000Y-89629000I-200000J0D01*
G01*
X186236000Y-89629000D01*
G75*
G02*
X186036000Y-89429000I0J200000D01*
G01*
G37*
G36*
G01*
X184386000Y-89429000D02*
X184386000Y-88879000D01*
G75*
G02*
X184586000Y-88679000I200000J0D01*
G01*
X184986000Y-88679000D01*
G75*
G02*
X185186000Y-88879000I0J-200000D01*
G01*
X185186000Y-89429000D01*
G75*
G02*
X184986000Y-89629000I-200000J0D01*
G01*
X184586000Y-89629000D01*
G75*
G02*
X184386000Y-89429000I0J200000D01*
G01*
G37*
%TD*%
%TO.C,R16*%
G36*
G01*
X179091000Y-84220000D02*
X178541000Y-84220000D01*
G75*
G02*
X178341000Y-84020000I0J200000D01*
G01*
X178341000Y-83620000D01*
G75*
G02*
X178541000Y-83420000I200000J0D01*
G01*
X179091000Y-83420000D01*
G75*
G02*
X179291000Y-83620000I0J-200000D01*
G01*
X179291000Y-84020000D01*
G75*
G02*
X179091000Y-84220000I-200000J0D01*
G01*
G37*
G36*
G01*
X179091000Y-85870000D02*
X178541000Y-85870000D01*
G75*
G02*
X178341000Y-85670000I0J200000D01*
G01*
X178341000Y-85270000D01*
G75*
G02*
X178541000Y-85070000I200000J0D01*
G01*
X179091000Y-85070000D01*
G75*
G02*
X179291000Y-85270000I0J-200000D01*
G01*
X179291000Y-85670000D01*
G75*
G02*
X179091000Y-85870000I-200000J0D01*
G01*
G37*
%TD*%
%TO.C,R15*%
G36*
G01*
X182734000Y-85619000D02*
X182734000Y-85069000D01*
G75*
G02*
X182934000Y-84869000I200000J0D01*
G01*
X183334000Y-84869000D01*
G75*
G02*
X183534000Y-85069000I0J-200000D01*
G01*
X183534000Y-85619000D01*
G75*
G02*
X183334000Y-85819000I-200000J0D01*
G01*
X182934000Y-85819000D01*
G75*
G02*
X182734000Y-85619000I0J200000D01*
G01*
G37*
G36*
G01*
X181084000Y-85619000D02*
X181084000Y-85069000D01*
G75*
G02*
X181284000Y-84869000I200000J0D01*
G01*
X181684000Y-84869000D01*
G75*
G02*
X181884000Y-85069000I0J-200000D01*
G01*
X181884000Y-85619000D01*
G75*
G02*
X181684000Y-85819000I-200000J0D01*
G01*
X181284000Y-85819000D01*
G75*
G02*
X181084000Y-85619000I0J200000D01*
G01*
G37*
%TD*%
%TO.C,R14*%
G36*
G01*
X185972000Y-93239000D02*
X185972000Y-92689000D01*
G75*
G02*
X186172000Y-92489000I200000J0D01*
G01*
X186572000Y-92489000D01*
G75*
G02*
X186772000Y-92689000I0J-200000D01*
G01*
X186772000Y-93239000D01*
G75*
G02*
X186572000Y-93439000I-200000J0D01*
G01*
X186172000Y-93439000D01*
G75*
G02*
X185972000Y-93239000I0J200000D01*
G01*
G37*
G36*
G01*
X184322000Y-93239000D02*
X184322000Y-92689000D01*
G75*
G02*
X184522000Y-92489000I200000J0D01*
G01*
X184922000Y-92489000D01*
G75*
G02*
X185122000Y-92689000I0J-200000D01*
G01*
X185122000Y-93239000D01*
G75*
G02*
X184922000Y-93439000I-200000J0D01*
G01*
X184522000Y-93439000D01*
G75*
G02*
X184322000Y-93239000I0J200000D01*
G01*
G37*
%TD*%
%TO.C,R13*%
G36*
G01*
X160803000Y-83903000D02*
X160253000Y-83903000D01*
G75*
G02*
X160053000Y-83703000I0J200000D01*
G01*
X160053000Y-83303000D01*
G75*
G02*
X160253000Y-83103000I200000J0D01*
G01*
X160803000Y-83103000D01*
G75*
G02*
X161003000Y-83303000I0J-200000D01*
G01*
X161003000Y-83703000D01*
G75*
G02*
X160803000Y-83903000I-200000J0D01*
G01*
G37*
G36*
G01*
X160803000Y-85553000D02*
X160253000Y-85553000D01*
G75*
G02*
X160053000Y-85353000I0J200000D01*
G01*
X160053000Y-84953000D01*
G75*
G02*
X160253000Y-84753000I200000J0D01*
G01*
X160803000Y-84753000D01*
G75*
G02*
X161003000Y-84953000I0J-200000D01*
G01*
X161003000Y-85353000D01*
G75*
G02*
X160803000Y-85553000I-200000J0D01*
G01*
G37*
%TD*%
%TO.C,R11*%
G36*
G01*
X185908000Y-96922000D02*
X185908000Y-96372000D01*
G75*
G02*
X186108000Y-96172000I200000J0D01*
G01*
X186508000Y-96172000D01*
G75*
G02*
X186708000Y-96372000I0J-200000D01*
G01*
X186708000Y-96922000D01*
G75*
G02*
X186508000Y-97122000I-200000J0D01*
G01*
X186108000Y-97122000D01*
G75*
G02*
X185908000Y-96922000I0J200000D01*
G01*
G37*
G36*
G01*
X184258000Y-96922000D02*
X184258000Y-96372000D01*
G75*
G02*
X184458000Y-96172000I200000J0D01*
G01*
X184858000Y-96172000D01*
G75*
G02*
X185058000Y-96372000I0J-200000D01*
G01*
X185058000Y-96922000D01*
G75*
G02*
X184858000Y-97122000I-200000J0D01*
G01*
X184458000Y-97122000D01*
G75*
G02*
X184258000Y-96922000I0J200000D01*
G01*
G37*
%TD*%
%TO.C,R10*%
G36*
G01*
X160803000Y-79839000D02*
X160253000Y-79839000D01*
G75*
G02*
X160053000Y-79639000I0J200000D01*
G01*
X160053000Y-79239000D01*
G75*
G02*
X160253000Y-79039000I200000J0D01*
G01*
X160803000Y-79039000D01*
G75*
G02*
X161003000Y-79239000I0J-200000D01*
G01*
X161003000Y-79639000D01*
G75*
G02*
X160803000Y-79839000I-200000J0D01*
G01*
G37*
G36*
G01*
X160803000Y-81489000D02*
X160253000Y-81489000D01*
G75*
G02*
X160053000Y-81289000I0J200000D01*
G01*
X160053000Y-80889000D01*
G75*
G02*
X160253000Y-80689000I200000J0D01*
G01*
X160803000Y-80689000D01*
G75*
G02*
X161003000Y-80889000I0J-200000D01*
G01*
X161003000Y-81289000D01*
G75*
G02*
X160803000Y-81489000I-200000J0D01*
G01*
G37*
%TD*%
%TO.C,R8*%
G36*
G01*
X179599000Y-73552000D02*
X179049000Y-73552000D01*
G75*
G02*
X178849000Y-73352000I0J200000D01*
G01*
X178849000Y-72952000D01*
G75*
G02*
X179049000Y-72752000I200000J0D01*
G01*
X179599000Y-72752000D01*
G75*
G02*
X179799000Y-72952000I0J-200000D01*
G01*
X179799000Y-73352000D01*
G75*
G02*
X179599000Y-73552000I-200000J0D01*
G01*
G37*
G36*
G01*
X179599000Y-75202000D02*
X179049000Y-75202000D01*
G75*
G02*
X178849000Y-75002000I0J200000D01*
G01*
X178849000Y-74602000D01*
G75*
G02*
X179049000Y-74402000I200000J0D01*
G01*
X179599000Y-74402000D01*
G75*
G02*
X179799000Y-74602000I0J-200000D01*
G01*
X179799000Y-75002000D01*
G75*
G02*
X179599000Y-75202000I-200000J0D01*
G01*
G37*
%TD*%
%TO.C,R7*%
G36*
G01*
X177059000Y-73552000D02*
X176509000Y-73552000D01*
G75*
G02*
X176309000Y-73352000I0J200000D01*
G01*
X176309000Y-72952000D01*
G75*
G02*
X176509000Y-72752000I200000J0D01*
G01*
X177059000Y-72752000D01*
G75*
G02*
X177259000Y-72952000I0J-200000D01*
G01*
X177259000Y-73352000D01*
G75*
G02*
X177059000Y-73552000I-200000J0D01*
G01*
G37*
G36*
G01*
X177059000Y-75202000D02*
X176509000Y-75202000D01*
G75*
G02*
X176309000Y-75002000I0J200000D01*
G01*
X176309000Y-74602000D01*
G75*
G02*
X176509000Y-74402000I200000J0D01*
G01*
X177059000Y-74402000D01*
G75*
G02*
X177259000Y-74602000I0J-200000D01*
G01*
X177259000Y-75002000D01*
G75*
G02*
X177059000Y-75202000I-200000J0D01*
G01*
G37*
%TD*%
%TO.C,R6*%
G36*
G01*
X169947000Y-73743000D02*
X169397000Y-73743000D01*
G75*
G02*
X169197000Y-73543000I0J200000D01*
G01*
X169197000Y-73143000D01*
G75*
G02*
X169397000Y-72943000I200000J0D01*
G01*
X169947000Y-72943000D01*
G75*
G02*
X170147000Y-73143000I0J-200000D01*
G01*
X170147000Y-73543000D01*
G75*
G02*
X169947000Y-73743000I-200000J0D01*
G01*
G37*
G36*
G01*
X169947000Y-75393000D02*
X169397000Y-75393000D01*
G75*
G02*
X169197000Y-75193000I0J200000D01*
G01*
X169197000Y-74793000D01*
G75*
G02*
X169397000Y-74593000I200000J0D01*
G01*
X169947000Y-74593000D01*
G75*
G02*
X170147000Y-74793000I0J-200000D01*
G01*
X170147000Y-75193000D01*
G75*
G02*
X169947000Y-75393000I-200000J0D01*
G01*
G37*
%TD*%
%TO.C,R5*%
G36*
G01*
X166899000Y-73743000D02*
X166349000Y-73743000D01*
G75*
G02*
X166149000Y-73543000I0J200000D01*
G01*
X166149000Y-73143000D01*
G75*
G02*
X166349000Y-72943000I200000J0D01*
G01*
X166899000Y-72943000D01*
G75*
G02*
X167099000Y-73143000I0J-200000D01*
G01*
X167099000Y-73543000D01*
G75*
G02*
X166899000Y-73743000I-200000J0D01*
G01*
G37*
G36*
G01*
X166899000Y-75393000D02*
X166349000Y-75393000D01*
G75*
G02*
X166149000Y-75193000I0J200000D01*
G01*
X166149000Y-74793000D01*
G75*
G02*
X166349000Y-74593000I200000J0D01*
G01*
X166899000Y-74593000D01*
G75*
G02*
X167099000Y-74793000I0J-200000D01*
G01*
X167099000Y-75193000D01*
G75*
G02*
X166899000Y-75393000I-200000J0D01*
G01*
G37*
%TD*%
%TO.C,R2*%
G36*
G01*
X158263000Y-82188000D02*
X157713000Y-82188000D01*
G75*
G02*
X157513000Y-81988000I0J200000D01*
G01*
X157513000Y-81588000D01*
G75*
G02*
X157713000Y-81388000I200000J0D01*
G01*
X158263000Y-81388000D01*
G75*
G02*
X158463000Y-81588000I0J-200000D01*
G01*
X158463000Y-81988000D01*
G75*
G02*
X158263000Y-82188000I-200000J0D01*
G01*
G37*
G36*
G01*
X158263000Y-83838000D02*
X157713000Y-83838000D01*
G75*
G02*
X157513000Y-83638000I0J200000D01*
G01*
X157513000Y-83238000D01*
G75*
G02*
X157713000Y-83038000I200000J0D01*
G01*
X158263000Y-83038000D01*
G75*
G02*
X158463000Y-83238000I0J-200000D01*
G01*
X158463000Y-83638000D01*
G75*
G02*
X158263000Y-83838000I-200000J0D01*
G01*
G37*
%TD*%
%TO.C,R1*%
G36*
G01*
X193527000Y-74910000D02*
X194077000Y-74910000D01*
G75*
G02*
X194277000Y-75110000I0J-200000D01*
G01*
X194277000Y-75510000D01*
G75*
G02*
X194077000Y-75710000I-200000J0D01*
G01*
X193527000Y-75710000D01*
G75*
G02*
X193327000Y-75510000I0J200000D01*
G01*
X193327000Y-75110000D01*
G75*
G02*
X193527000Y-74910000I200000J0D01*
G01*
G37*
G36*
G01*
X193527000Y-73260000D02*
X194077000Y-73260000D01*
G75*
G02*
X194277000Y-73460000I0J-200000D01*
G01*
X194277000Y-73860000D01*
G75*
G02*
X194077000Y-74060000I-200000J0D01*
G01*
X193527000Y-74060000D01*
G75*
G02*
X193327000Y-73860000I0J200000D01*
G01*
X193327000Y-73460000D01*
G75*
G02*
X193527000Y-73260000I200000J0D01*
G01*
G37*
%TD*%
D23*
%TO.C,Q2*%
X174212000Y-74102000D03*
X172212000Y-75052000D03*
X172212000Y-73152000D03*
%TD*%
%TO.C,Q1*%
X164068000Y-74168000D03*
X162068000Y-75118000D03*
X162068000Y-73218000D03*
%TD*%
D24*
%TO.C,L1*%
X125476000Y-82086000D03*
X125476000Y-87586000D03*
%TD*%
D13*
%TO.C,JP1*%
X155956000Y-88062000D03*
D14*
X158496000Y-88062000D03*
%TD*%
D13*
%TO.C,J4*%
X169164000Y-57658000D03*
X166624000Y-57658000D03*
X164084000Y-57658000D03*
D14*
X161544000Y-57658000D03*
%TD*%
D13*
%TO.C,J3*%
X191008000Y-58420000D03*
X191008000Y-60960000D03*
D14*
X191008000Y-63500000D03*
%TD*%
%TO.C,F1*%
G36*
G01*
X129473000Y-96228000D02*
X130623000Y-96228000D01*
G75*
G02*
X130873000Y-96478000I0J-250000D01*
G01*
X130873000Y-97578000D01*
G75*
G02*
X130623000Y-97828000I-250000J0D01*
G01*
X129473000Y-97828000D01*
G75*
G02*
X129223000Y-97578000I0J250000D01*
G01*
X129223000Y-96478000D01*
G75*
G02*
X129473000Y-96228000I250000J0D01*
G01*
G37*
G36*
G01*
X129473000Y-93378000D02*
X130623000Y-93378000D01*
G75*
G02*
X130873000Y-93628000I0J-250000D01*
G01*
X130873000Y-94728000D01*
G75*
G02*
X130623000Y-94978000I-250000J0D01*
G01*
X129473000Y-94978000D01*
G75*
G02*
X129223000Y-94728000I0J250000D01*
G01*
X129223000Y-93628000D01*
G75*
G02*
X129473000Y-93378000I250000J0D01*
G01*
G37*
%TD*%
D25*
%TO.C,D14*%
X185182000Y-78105000D03*
X187182000Y-77455000D03*
X187182000Y-78755000D03*
%TD*%
%TO.C,D13*%
X188881000Y-89139000D03*
X190881000Y-88489000D03*
X190881000Y-89789000D03*
%TD*%
%TO.C,D12*%
X185309000Y-81534000D03*
X187309000Y-80884000D03*
X187309000Y-82184000D03*
%TD*%
%TO.C,D11*%
X188865000Y-92964000D03*
X190865000Y-92314000D03*
X190865000Y-93614000D03*
%TD*%
%TO.C,D10*%
X185325000Y-85329000D03*
X187325000Y-84679000D03*
X187325000Y-85979000D03*
%TD*%
%TO.C,D9*%
X174641000Y-80010000D03*
X176641000Y-79360000D03*
X176641000Y-80660000D03*
%TD*%
%TO.C,D8*%
X174625000Y-83439000D03*
X176625000Y-82789000D03*
X176625000Y-84089000D03*
%TD*%
%TO.C,D7*%
X164576000Y-83820000D03*
X162576000Y-84470000D03*
X162576000Y-83170000D03*
%TD*%
%TO.C,D6*%
X164576000Y-80264000D03*
X162576000Y-80914000D03*
X162576000Y-79614000D03*
%TD*%
D26*
%TO.C,D5*%
X168622000Y-85852000D03*
X170722000Y-85852000D03*
%TD*%
D25*
%TO.C,D4*%
X188881000Y-96632000D03*
X190881000Y-95982000D03*
X190881000Y-97282000D03*
%TD*%
D27*
%TO.C,D3*%
X131064000Y-84802000D03*
X131064000Y-86902000D03*
%TD*%
D28*
%TO.C,D2*%
X138684000Y-96520000D03*
X134684000Y-96520000D03*
%TD*%
D29*
%TO.C,D1*%
X154498000Y-83804000D03*
X153548000Y-81804000D03*
X155448000Y-81804000D03*
%TD*%
%TO.C,C18*%
G36*
G01*
X169080000Y-79506000D02*
X169080000Y-80006000D01*
G75*
G02*
X168855000Y-80231000I-225000J0D01*
G01*
X168405000Y-80231000D01*
G75*
G02*
X168180000Y-80006000I0J225000D01*
G01*
X168180000Y-79506000D01*
G75*
G02*
X168405000Y-79281000I225000J0D01*
G01*
X168855000Y-79281000D01*
G75*
G02*
X169080000Y-79506000I0J-225000D01*
G01*
G37*
G36*
G01*
X170630000Y-79506000D02*
X170630000Y-80006000D01*
G75*
G02*
X170405000Y-80231000I-225000J0D01*
G01*
X169955000Y-80231000D01*
G75*
G02*
X169730000Y-80006000I0J225000D01*
G01*
X169730000Y-79506000D01*
G75*
G02*
X169955000Y-79281000I225000J0D01*
G01*
X170405000Y-79281000D01*
G75*
G02*
X170630000Y-79506000I0J-225000D01*
G01*
G37*
%TD*%
%TO.C,C16*%
G36*
G01*
X131314000Y-89858000D02*
X130814000Y-89858000D01*
G75*
G02*
X130589000Y-89633000I0J225000D01*
G01*
X130589000Y-89183000D01*
G75*
G02*
X130814000Y-88958000I225000J0D01*
G01*
X131314000Y-88958000D01*
G75*
G02*
X131539000Y-89183000I0J-225000D01*
G01*
X131539000Y-89633000D01*
G75*
G02*
X131314000Y-89858000I-225000J0D01*
G01*
G37*
G36*
G01*
X131314000Y-91408000D02*
X130814000Y-91408000D01*
G75*
G02*
X130589000Y-91183000I0J225000D01*
G01*
X130589000Y-90733000D01*
G75*
G02*
X130814000Y-90508000I225000J0D01*
G01*
X131314000Y-90508000D01*
G75*
G02*
X131539000Y-90733000I0J-225000D01*
G01*
X131539000Y-91183000D01*
G75*
G02*
X131314000Y-91408000I-225000J0D01*
G01*
G37*
%TD*%
%TO.C,C14*%
G36*
G01*
X136710000Y-82546000D02*
X136710000Y-82046000D01*
G75*
G02*
X136935000Y-81821000I225000J0D01*
G01*
X137385000Y-81821000D01*
G75*
G02*
X137610000Y-82046000I0J-225000D01*
G01*
X137610000Y-82546000D01*
G75*
G02*
X137385000Y-82771000I-225000J0D01*
G01*
X136935000Y-82771000D01*
G75*
G02*
X136710000Y-82546000I0J225000D01*
G01*
G37*
G36*
G01*
X135160000Y-82546000D02*
X135160000Y-82046000D01*
G75*
G02*
X135385000Y-81821000I225000J0D01*
G01*
X135835000Y-81821000D01*
G75*
G02*
X136060000Y-82046000I0J-225000D01*
G01*
X136060000Y-82546000D01*
G75*
G02*
X135835000Y-82771000I-225000J0D01*
G01*
X135385000Y-82771000D01*
G75*
G02*
X135160000Y-82546000I0J225000D01*
G01*
G37*
%TD*%
%TO.C,C13*%
G36*
G01*
X123411000Y-77208000D02*
X122461000Y-77208000D01*
G75*
G02*
X122211000Y-76958000I0J250000D01*
G01*
X122211000Y-76458000D01*
G75*
G02*
X122461000Y-76208000I250000J0D01*
G01*
X123411000Y-76208000D01*
G75*
G02*
X123661000Y-76458000I0J-250000D01*
G01*
X123661000Y-76958000D01*
G75*
G02*
X123411000Y-77208000I-250000J0D01*
G01*
G37*
G36*
G01*
X123411000Y-79108000D02*
X122461000Y-79108000D01*
G75*
G02*
X122211000Y-78858000I0J250000D01*
G01*
X122211000Y-78358000D01*
G75*
G02*
X122461000Y-78108000I250000J0D01*
G01*
X123411000Y-78108000D01*
G75*
G02*
X123661000Y-78358000I0J-250000D01*
G01*
X123661000Y-78858000D01*
G75*
G02*
X123411000Y-79108000I-250000J0D01*
G01*
G37*
%TD*%
%TO.C,C11*%
G36*
G01*
X129417000Y-74620000D02*
X129917000Y-74620000D01*
G75*
G02*
X130142000Y-74845000I0J-225000D01*
G01*
X130142000Y-75295000D01*
G75*
G02*
X129917000Y-75520000I-225000J0D01*
G01*
X129417000Y-75520000D01*
G75*
G02*
X129192000Y-75295000I0J225000D01*
G01*
X129192000Y-74845000D01*
G75*
G02*
X129417000Y-74620000I225000J0D01*
G01*
G37*
G36*
G01*
X129417000Y-73070000D02*
X129917000Y-73070000D01*
G75*
G02*
X130142000Y-73295000I0J-225000D01*
G01*
X130142000Y-73745000D01*
G75*
G02*
X129917000Y-73970000I-225000J0D01*
G01*
X129417000Y-73970000D01*
G75*
G02*
X129192000Y-73745000I0J225000D01*
G01*
X129192000Y-73295000D01*
G75*
G02*
X129417000Y-73070000I225000J0D01*
G01*
G37*
%TD*%
%TO.C,C10*%
G36*
G01*
X127958000Y-91407000D02*
X127958000Y-90457000D01*
G75*
G02*
X128208000Y-90207000I250000J0D01*
G01*
X128708000Y-90207000D01*
G75*
G02*
X128958000Y-90457000I0J-250000D01*
G01*
X128958000Y-91407000D01*
G75*
G02*
X128708000Y-91657000I-250000J0D01*
G01*
X128208000Y-91657000D01*
G75*
G02*
X127958000Y-91407000I0J250000D01*
G01*
G37*
G36*
G01*
X126058000Y-91407000D02*
X126058000Y-90457000D01*
G75*
G02*
X126308000Y-90207000I250000J0D01*
G01*
X126808000Y-90207000D01*
G75*
G02*
X127058000Y-90457000I0J-250000D01*
G01*
X127058000Y-91407000D01*
G75*
G02*
X126808000Y-91657000I-250000J0D01*
G01*
X126308000Y-91657000D01*
G75*
G02*
X126058000Y-91407000I0J250000D01*
G01*
G37*
%TD*%
%TO.C,C9*%
G36*
G01*
X150626000Y-80589000D02*
X151126000Y-80589000D01*
G75*
G02*
X151351000Y-80814000I0J-225000D01*
G01*
X151351000Y-81264000D01*
G75*
G02*
X151126000Y-81489000I-225000J0D01*
G01*
X150626000Y-81489000D01*
G75*
G02*
X150401000Y-81264000I0J225000D01*
G01*
X150401000Y-80814000D01*
G75*
G02*
X150626000Y-80589000I225000J0D01*
G01*
G37*
G36*
G01*
X150626000Y-79039000D02*
X151126000Y-79039000D01*
G75*
G02*
X151351000Y-79264000I0J-225000D01*
G01*
X151351000Y-79714000D01*
G75*
G02*
X151126000Y-79939000I-225000J0D01*
G01*
X150626000Y-79939000D01*
G75*
G02*
X150401000Y-79714000I0J225000D01*
G01*
X150401000Y-79264000D01*
G75*
G02*
X150626000Y-79039000I225000J0D01*
G01*
G37*
%TD*%
%TO.C,C8*%
G36*
G01*
X142244000Y-81872000D02*
X142744000Y-81872000D01*
G75*
G02*
X142969000Y-82097000I0J-225000D01*
G01*
X142969000Y-82547000D01*
G75*
G02*
X142744000Y-82772000I-225000J0D01*
G01*
X142244000Y-82772000D01*
G75*
G02*
X142019000Y-82547000I0J225000D01*
G01*
X142019000Y-82097000D01*
G75*
G02*
X142244000Y-81872000I225000J0D01*
G01*
G37*
G36*
G01*
X142244000Y-80322000D02*
X142744000Y-80322000D01*
G75*
G02*
X142969000Y-80547000I0J-225000D01*
G01*
X142969000Y-80997000D01*
G75*
G02*
X142744000Y-81222000I-225000J0D01*
G01*
X142244000Y-81222000D01*
G75*
G02*
X142019000Y-80997000I0J225000D01*
G01*
X142019000Y-80547000D01*
G75*
G02*
X142244000Y-80322000I225000J0D01*
G01*
G37*
%TD*%
%TO.C,C7*%
G36*
G01*
X147404000Y-86610000D02*
X147404000Y-86110000D01*
G75*
G02*
X147629000Y-85885000I225000J0D01*
G01*
X148079000Y-85885000D01*
G75*
G02*
X148304000Y-86110000I0J-225000D01*
G01*
X148304000Y-86610000D01*
G75*
G02*
X148079000Y-86835000I-225000J0D01*
G01*
X147629000Y-86835000D01*
G75*
G02*
X147404000Y-86610000I0J225000D01*
G01*
G37*
G36*
G01*
X145854000Y-86610000D02*
X145854000Y-86110000D01*
G75*
G02*
X146079000Y-85885000I225000J0D01*
G01*
X146529000Y-85885000D01*
G75*
G02*
X146754000Y-86110000I0J-225000D01*
G01*
X146754000Y-86610000D01*
G75*
G02*
X146529000Y-86835000I-225000J0D01*
G01*
X146079000Y-86835000D01*
G75*
G02*
X145854000Y-86610000I0J225000D01*
G01*
G37*
%TD*%
%TO.C,C5*%
G36*
G01*
X185362000Y-58170000D02*
X185362000Y-58670000D01*
G75*
G02*
X185137000Y-58895000I-225000J0D01*
G01*
X184687000Y-58895000D01*
G75*
G02*
X184462000Y-58670000I0J225000D01*
G01*
X184462000Y-58170000D01*
G75*
G02*
X184687000Y-57945000I225000J0D01*
G01*
X185137000Y-57945000D01*
G75*
G02*
X185362000Y-58170000I0J-225000D01*
G01*
G37*
G36*
G01*
X186912000Y-58170000D02*
X186912000Y-58670000D01*
G75*
G02*
X186687000Y-58895000I-225000J0D01*
G01*
X186237000Y-58895000D01*
G75*
G02*
X186012000Y-58670000I0J225000D01*
G01*
X186012000Y-58170000D01*
G75*
G02*
X186237000Y-57945000I225000J0D01*
G01*
X186687000Y-57945000D01*
G75*
G02*
X186912000Y-58170000I0J-225000D01*
G01*
G37*
%TD*%
%TO.C,C3*%
G36*
G01*
X143822000Y-86610000D02*
X143822000Y-86110000D01*
G75*
G02*
X144047000Y-85885000I225000J0D01*
G01*
X144497000Y-85885000D01*
G75*
G02*
X144722000Y-86110000I0J-225000D01*
G01*
X144722000Y-86610000D01*
G75*
G02*
X144497000Y-86835000I-225000J0D01*
G01*
X144047000Y-86835000D01*
G75*
G02*
X143822000Y-86610000I0J225000D01*
G01*
G37*
G36*
G01*
X142272000Y-86610000D02*
X142272000Y-86110000D01*
G75*
G02*
X142497000Y-85885000I225000J0D01*
G01*
X142947000Y-85885000D01*
G75*
G02*
X143172000Y-86110000I0J-225000D01*
G01*
X143172000Y-86610000D01*
G75*
G02*
X142947000Y-86835000I-225000J0D01*
G01*
X142497000Y-86835000D01*
G75*
G02*
X142272000Y-86610000I0J225000D01*
G01*
G37*
%TD*%
%TO.C,C2*%
G36*
G01*
X144330000Y-74418000D02*
X144330000Y-73918000D01*
G75*
G02*
X144555000Y-73693000I225000J0D01*
G01*
X145005000Y-73693000D01*
G75*
G02*
X145230000Y-73918000I0J-225000D01*
G01*
X145230000Y-74418000D01*
G75*
G02*
X145005000Y-74643000I-225000J0D01*
G01*
X144555000Y-74643000D01*
G75*
G02*
X144330000Y-74418000I0J225000D01*
G01*
G37*
G36*
G01*
X142780000Y-74418000D02*
X142780000Y-73918000D01*
G75*
G02*
X143005000Y-73693000I225000J0D01*
G01*
X143455000Y-73693000D01*
G75*
G02*
X143680000Y-73918000I0J-225000D01*
G01*
X143680000Y-74418000D01*
G75*
G02*
X143455000Y-74643000I-225000J0D01*
G01*
X143005000Y-74643000D01*
G75*
G02*
X142780000Y-74418000I0J225000D01*
G01*
G37*
%TD*%
%TO.C,C1*%
G36*
G01*
X157030000Y-71878000D02*
X157030000Y-71378000D01*
G75*
G02*
X157255000Y-71153000I225000J0D01*
G01*
X157705000Y-71153000D01*
G75*
G02*
X157930000Y-71378000I0J-225000D01*
G01*
X157930000Y-71878000D01*
G75*
G02*
X157705000Y-72103000I-225000J0D01*
G01*
X157255000Y-72103000D01*
G75*
G02*
X157030000Y-71878000I0J225000D01*
G01*
G37*
G36*
G01*
X155480000Y-71878000D02*
X155480000Y-71378000D01*
G75*
G02*
X155705000Y-71153000I225000J0D01*
G01*
X156155000Y-71153000D01*
G75*
G02*
X156380000Y-71378000I0J-225000D01*
G01*
X156380000Y-71878000D01*
G75*
G02*
X156155000Y-72103000I-225000J0D01*
G01*
X155705000Y-72103000D01*
G75*
G02*
X155480000Y-71878000I0J225000D01*
G01*
G37*
%TD*%
D30*
%TO.C,U4*%
X178054000Y-54356000D03*
X147574000Y-69596000D03*
X150114000Y-67056000D03*
X150114000Y-69596000D03*
X152654000Y-69596000D03*
X155194000Y-69596000D03*
X157734000Y-69596000D03*
X160274000Y-69596000D03*
X162814000Y-69596000D03*
X165354000Y-69596000D03*
X167894000Y-69596000D03*
X170434000Y-69596000D03*
X172974000Y-69596000D03*
X175514000Y-69596000D03*
X178054000Y-69596000D03*
X180594000Y-69596000D03*
X180594000Y-67056000D03*
X180594000Y-64516000D03*
X180594000Y-61976000D03*
X180594000Y-59436000D03*
X180594000Y-56896000D03*
X180594000Y-54356000D03*
X175514000Y-54356000D03*
X172974000Y-54356000D03*
X170434000Y-54356000D03*
X167894000Y-54356000D03*
X165354000Y-54356000D03*
X162814000Y-54356000D03*
X160274000Y-54356000D03*
X157734000Y-54356000D03*
X155194000Y-54356000D03*
X152654000Y-54356000D03*
D31*
X148844000Y-60706000D03*
X148844000Y-63246000D03*
D32*
X154712400Y-58476000D03*
X154712400Y-59476000D03*
X154712400Y-60476000D03*
X154712400Y-61476000D03*
X154712400Y-62476000D03*
X154712400Y-63476000D03*
X154712400Y-64476000D03*
X154712400Y-65476000D03*
D31*
X172974000Y-56896000D03*
X175514000Y-56896000D03*
X172974000Y-59436000D03*
X175514000Y-59436000D03*
X172974000Y-61976000D03*
X175514000Y-61976000D03*
X172974000Y-64516000D03*
X175514000Y-64516000D03*
X172974000Y-67056000D03*
X175514000Y-67056000D03*
D30*
X150114000Y-54356000D03*
X147574000Y-54356000D03*
%TD*%
D13*
%TO.C,J2*%
X196596000Y-58420000D03*
X196596000Y-60960000D03*
X196596000Y-63500000D03*
X196596000Y-66040000D03*
X196596000Y-68580000D03*
X196596000Y-71120000D03*
X196596000Y-73660000D03*
X196596000Y-76200000D03*
X196596000Y-78740000D03*
X196596000Y-81280000D03*
X196596000Y-83820000D03*
X196596000Y-86360000D03*
X196596000Y-88900000D03*
D14*
X196596000Y-91440000D03*
%TD*%
D13*
%TO.C,J1*%
X191008000Y-68580000D03*
X191008000Y-71120000D03*
X191008000Y-73660000D03*
X191008000Y-76200000D03*
X191008000Y-78740000D03*
X191008000Y-81280000D03*
D14*
X191008000Y-83820000D03*
%TD*%
M02*
