%TF.GenerationSoftware,KiCad,Pcbnew,(5.1.9)-1*%
%TF.CreationDate,2021-02-21T10:06:19+01:00*%
%TF.ProjectId,CanDisplayFoReal,43616e44-6973-4706-9c61-79466f526561,rev?*%
%TF.SameCoordinates,Original*%
%TF.FileFunction,Soldermask,Bot*%
%TF.FilePolarity,Negative*%
%FSLAX46Y46*%
G04 Gerber Fmt 4.6, Leading zero omitted, Abs format (unit mm)*
G04 Created by KiCad (PCBNEW (5.1.9)-1) date 2021-02-21 10:06:19*
%MOMM*%
%LPD*%
G01*
G04 APERTURE LIST*
%ADD10C,1.152000*%
%ADD11C,1.500000*%
%ADD12C,1.000000*%
%ADD13R,0.800000X1.500000*%
%ADD14R,1.450000X2.000000*%
%ADD15O,1.700000X1.700000*%
%ADD16R,1.700000X1.700000*%
%ADD17C,5.600000*%
%ADD18O,2.300000X1.500000*%
%ADD19R,2.300000X1.500000*%
%ADD20C,1.404000*%
%ADD21C,1.304000*%
%ADD22C,0.804000*%
G04 APERTURE END LIST*
D10*
%TO.C,REF\u002A\u002A*%
X193802000Y-92964000D03*
%TD*%
%TO.C,REF\u002A\u002A*%
X121666000Y-92202000D03*
%TD*%
%TO.C,REF\u002A\u002A*%
X121666000Y-57404000D03*
%TD*%
D11*
%TO.C,J5*%
X151654000Y-93650000D03*
X148654000Y-93650000D03*
X145654000Y-93650000D03*
X151654000Y-96650000D03*
X148654000Y-96650000D03*
G36*
G01*
X144904000Y-97150000D02*
X144904000Y-96150000D01*
G75*
G02*
X145154000Y-95900000I250000J0D01*
G01*
X146154000Y-95900000D01*
G75*
G02*
X146404000Y-96150000I0J-250000D01*
G01*
X146404000Y-97150000D01*
G75*
G02*
X146154000Y-97400000I-250000J0D01*
G01*
X145154000Y-97400000D01*
G75*
G02*
X144904000Y-97150000I0J250000D01*
G01*
G37*
D12*
X154654000Y-92710000D03*
X142654000Y-92710000D03*
%TD*%
D11*
%TO.C,J8*%
X177672000Y-93698000D03*
X174672000Y-93698000D03*
X171672000Y-93698000D03*
X168672000Y-93698000D03*
X165672000Y-93698000D03*
X162672000Y-93698000D03*
X177672000Y-96698000D03*
X174672000Y-96698000D03*
X171672000Y-96698000D03*
X168672000Y-96698000D03*
X165672000Y-96698000D03*
G36*
G01*
X161922000Y-97198000D02*
X161922000Y-96198000D01*
G75*
G02*
X162172000Y-95948000I250000J0D01*
G01*
X163172000Y-95948000D01*
G75*
G02*
X163422000Y-96198000I0J-250000D01*
G01*
X163422000Y-97198000D01*
G75*
G02*
X163172000Y-97448000I-250000J0D01*
G01*
X162172000Y-97448000D01*
G75*
G02*
X161922000Y-97198000I0J250000D01*
G01*
G37*
D12*
X180672000Y-92758000D03*
X159672000Y-92758000D03*
%TD*%
D13*
%TO.C,J6*%
X138836000Y-54838000D03*
X137736000Y-54838000D03*
X136636000Y-54838000D03*
X135536000Y-54838000D03*
X134436000Y-54838000D03*
X133336000Y-54838000D03*
X132236000Y-54838000D03*
X131136000Y-54838000D03*
D14*
X128761000Y-60538000D03*
X142511000Y-60538000D03*
X142511000Y-52238000D03*
X128761000Y-52238000D03*
%TD*%
D15*
%TO.C,J9*%
X187706000Y-53848000D03*
D16*
X185166000Y-53848000D03*
%TD*%
D17*
%TO.C,REF\u002A\u002A*%
X123444000Y-53340000D03*
%TD*%
%TO.C,REF\u002A\u002A*%
X123444000Y-96520000D03*
%TD*%
%TO.C,REF\u002A\u002A*%
X196596000Y-53340000D03*
%TD*%
%TO.C,REF\u002A\u002A*%
X196596000Y-96520000D03*
%TD*%
D18*
%TO.C,U6*%
X126492000Y-73152000D03*
X126492000Y-75692000D03*
D19*
X126492000Y-78232000D03*
%TD*%
D15*
%TO.C,JP1*%
X155956000Y-88062000D03*
D16*
X158496000Y-88062000D03*
%TD*%
D15*
%TO.C,J4*%
X169164000Y-57658000D03*
X166624000Y-57658000D03*
X164084000Y-57658000D03*
D16*
X161544000Y-57658000D03*
%TD*%
D15*
%TO.C,J3*%
X191008000Y-58420000D03*
X191008000Y-60960000D03*
D16*
X191008000Y-63500000D03*
%TD*%
D20*
%TO.C,U4*%
X178054000Y-54356000D03*
X147574000Y-69596000D03*
X150114000Y-67056000D03*
X150114000Y-69596000D03*
X152654000Y-69596000D03*
X155194000Y-69596000D03*
X157734000Y-69596000D03*
X160274000Y-69596000D03*
X162814000Y-69596000D03*
X165354000Y-69596000D03*
X167894000Y-69596000D03*
X170434000Y-69596000D03*
X172974000Y-69596000D03*
X175514000Y-69596000D03*
X178054000Y-69596000D03*
X180594000Y-69596000D03*
X180594000Y-67056000D03*
X180594000Y-64516000D03*
X180594000Y-61976000D03*
X180594000Y-59436000D03*
X180594000Y-56896000D03*
X180594000Y-54356000D03*
X175514000Y-54356000D03*
X172974000Y-54356000D03*
X170434000Y-54356000D03*
X167894000Y-54356000D03*
X165354000Y-54356000D03*
X162814000Y-54356000D03*
X160274000Y-54356000D03*
X157734000Y-54356000D03*
X155194000Y-54356000D03*
X152654000Y-54356000D03*
D21*
X148844000Y-60706000D03*
X148844000Y-63246000D03*
D22*
X154712400Y-58476000D03*
X154712400Y-59476000D03*
X154712400Y-60476000D03*
X154712400Y-61476000D03*
X154712400Y-62476000D03*
X154712400Y-63476000D03*
X154712400Y-64476000D03*
X154712400Y-65476000D03*
D21*
X172974000Y-56896000D03*
X175514000Y-56896000D03*
X172974000Y-59436000D03*
X175514000Y-59436000D03*
X172974000Y-61976000D03*
X175514000Y-61976000D03*
X172974000Y-64516000D03*
X175514000Y-64516000D03*
X172974000Y-67056000D03*
X175514000Y-67056000D03*
D20*
X150114000Y-54356000D03*
X147574000Y-54356000D03*
%TD*%
D15*
%TO.C,J2*%
X196596000Y-58420000D03*
X196596000Y-60960000D03*
X196596000Y-63500000D03*
X196596000Y-66040000D03*
X196596000Y-68580000D03*
X196596000Y-71120000D03*
X196596000Y-73660000D03*
X196596000Y-76200000D03*
X196596000Y-78740000D03*
X196596000Y-81280000D03*
X196596000Y-83820000D03*
X196596000Y-86360000D03*
X196596000Y-88900000D03*
D16*
X196596000Y-91440000D03*
%TD*%
D15*
%TO.C,J1*%
X191008000Y-68580000D03*
X191008000Y-71120000D03*
X191008000Y-73660000D03*
X191008000Y-76200000D03*
X191008000Y-78740000D03*
X191008000Y-81280000D03*
D16*
X191008000Y-83820000D03*
%TD*%
M02*
