M48
; DRILL file {KiCad (5.1.9)-1} date 02/21/21 10:06:23
; FORMAT={-:-/ absolute / metric / decimal}
; #@! TF.CreationDate,2021-02-21T10:06:23+01:00
; #@! TF.GenerationSoftware,Kicad,Pcbnew,(5.1.9)-1
; #@! TF.FileFunction,Plated,1,4,PTH
FMAT,2
METRIC
T1C0.400
T2C0.500
T3C0.600
T4C1.000
T5C1.100
T6C3.200
%
G90
G05
T1
X130.556Y-57.912
X132.7Y-52.248
X132.969Y-76.581
X134.874Y-64.77
X138.811Y-66.802
X140.462Y-59.653
X141.986Y-74.168
X144.018Y-61.683
X146.05Y-74.168
X148.428Y-66.572
X148.5Y-68.0
X148.844Y-75.184
X149.86Y-82.804
X150.876Y-65.786
X153.67Y-66.802
X159.258Y-76.962
X160.528Y-74.168
X161.798Y-76.962
X162.306Y-65.786
X162.56Y-61.722
X163.576Y-67.31
X163.83Y-62.23
X163.83Y-71.374
X166.116Y-61.468
X166.116Y-79.502
X166.878Y-60.96
X168.607Y-66.333
X168.91Y-64.77
X169.418Y-71.628
X172.212Y-71.882
X176.642Y-91.11
X176.784Y-75.946
X177.292Y-58.42
X178.054Y-66.04
X179.324Y-75.946
X181.976Y-95.174
X184.15Y-83.058
X184.912Y-80.264
X185.42Y-69.85
X185.442Y-87.398
X187.96Y-91.186
X193.04Y-72.39
T2
X154.712Y-58.476
X154.712Y-59.476
X154.712Y-60.476
X154.712Y-61.476
X154.712Y-62.476
X154.712Y-63.476
X154.712Y-64.476
X154.712Y-65.476
T3
X122.794Y-75.616
X128.382Y-92.38
X128.524Y-89.408
X129.54Y-84.836
X130.16Y-67.742
X130.388Y-52.238
X130.556Y-60.452
X130.922Y-88.316
X131.176Y-78.918
X131.938Y-72.06
X131.938Y-85.522
X132.334Y-84.074
X132.588Y-89.408
X132.588Y-89.408
X133.35Y-64.77
X133.578Y-91.974
X133.716Y-67.742
X133.716Y-79.68
X134.224Y-69.266
X134.23Y-73.082
X134.366Y-82.296
X135.498Y-69.342
X135.636Y-75.184
X135.636Y-81.026
X135.636Y-88.392
X135.636Y-89.408
X135.89Y-72.898
X136.652Y-75.184
X137.16Y-81.026
X137.414Y-69.342
X137.922Y-68.072
X138.43Y-82.296
X138.684Y-88.392
X138.684Y-89.662
X139.446Y-71.628
X140.716Y-52.324
X140.716Y-60.452
X142.86Y-90.348
X143.368Y-67.234
X143.622Y-69.774
X143.622Y-71.552
X144.018Y-80.772
X144.018Y-93.218
X144.272Y-94.742
X144.892Y-73.076
X145.654Y-90.856
X146.162Y-67.234
X146.304Y-92.329
X146.353Y-94.996
X146.416Y-71.298
X149.606Y-79.502
X154.94Y-72.39
X154.94Y-85.09
X158.496Y-72.136
X159.004Y-60.198
X162.56Y-63.246
X162.56Y-78.74
X162.56Y-81.788
X162.56Y-85.344
X163.576Y-82.55
X165.974Y-77.648
X167.498Y-79.934
X167.64Y-85.852
X168.26Y-75.108
X168.656Y-81.026
X168.91Y-82.296
X169.276Y-77.648
X171.704Y-85.852
X175.768Y-78.486
X175.768Y-81.534
X176.022Y-85.09
X177.292Y-81.788
X184.912Y-56.896
X186.436Y-56.896
X186.436Y-76.2
X186.436Y-79.756
X186.436Y-83.566
X187.706Y-87.122
X187.96Y-83.312
X188.214Y-79.756
X189.992Y-87.376
X189.992Y-91.186
X190.246Y-94.996
X191.77Y-90.932
X191.77Y-98.552
X192.024Y-94.742
X193.802Y-76.708
X193.802Y-81.28
T4
X126.492Y-73.152
X126.492Y-75.692
X126.492Y-78.232
X145.654Y-93.65
X145.654Y-96.65
X148.654Y-93.65
X148.654Y-96.65
X148.844Y-60.706
X148.844Y-63.246
X151.654Y-93.65
X151.654Y-96.65
X155.956Y-88.062
X158.496Y-88.062
X161.544Y-57.658
X162.672Y-93.698
X162.672Y-96.698
X164.084Y-57.658
X165.672Y-93.698
X165.672Y-96.698
X166.624Y-57.658
X168.672Y-93.698
X168.672Y-96.698
X169.164Y-57.658
X171.672Y-93.698
X171.672Y-96.698
X172.974Y-56.896
X172.974Y-59.436
X172.974Y-61.976
X172.974Y-64.516
X172.974Y-67.056
X174.672Y-93.698
X174.672Y-96.698
X175.514Y-56.896
X175.514Y-59.436
X175.514Y-61.976
X175.514Y-64.516
X175.514Y-67.056
X177.672Y-93.698
X177.672Y-96.698
X185.166Y-53.848
X187.706Y-53.848
X191.008Y-58.42
X191.008Y-60.96
X191.008Y-63.5
X191.008Y-68.58
X191.008Y-71.12
X191.008Y-73.66
X191.008Y-76.2
X191.008Y-78.74
X191.008Y-81.28
X191.008Y-83.82
X196.596Y-58.42
X196.596Y-60.96
X196.596Y-63.5
X196.596Y-66.04
X196.596Y-68.58
X196.596Y-71.12
X196.596Y-73.66
X196.596Y-76.2
X196.596Y-78.74
X196.596Y-81.28
X196.596Y-83.82
X196.596Y-86.36
X196.596Y-88.9
X196.596Y-91.44
T5
X147.574Y-54.356
X147.574Y-69.596
X150.114Y-54.356
X150.114Y-67.056
X150.114Y-69.596
X152.654Y-54.356
X152.654Y-69.596
X155.194Y-54.356
X155.194Y-69.596
X157.734Y-54.356
X157.734Y-69.596
X160.274Y-54.356
X160.274Y-69.596
X162.814Y-54.356
X162.814Y-69.596
X165.354Y-54.356
X165.354Y-69.596
X167.894Y-54.356
X167.894Y-69.596
X170.434Y-54.356
X170.434Y-69.596
X172.974Y-54.356
X172.974Y-69.596
X175.514Y-54.356
X175.514Y-69.596
X178.054Y-54.356
X178.054Y-69.596
X180.594Y-54.356
X180.594Y-56.896
X180.594Y-59.436
X180.594Y-61.976
X180.594Y-64.516
X180.594Y-67.056
X180.594Y-69.596
T6
X123.444Y-53.34
X123.444Y-96.52
X196.596Y-53.34
X196.596Y-96.52
T0
M30
